<?xml version="1.0"?>
<svg width="2840" height="2810" xmlns="http://www.w3.org/2000/svg" xmlns:svg="http://www.w3.org/2000/svg" xmlns:xlink="http://www.w3.org/1999/xlink" enable-background="new 0 0 3710 3710">
 <linearGradient id="a">
  <stop offset="0" stop-color="#dae3fe"/>
  <stop offset="1" stop-color="#e9effd"/>
 </linearGradient>
 <linearGradient id="b" x1="1.09" x2="0.39" xlink:href="#a" y1="1.16" y2="0.41"/>
 <linearGradient id="c" x1="0.89" x2="-2.35" xlink:href="#a" y1="0.11" y2="2.46"/>
 <linearGradient id="d">
  <stop offset="0" stop-color="#09005d"/>
  <stop offset="1" stop-color="#1a0f91"/>
 </linearGradient>
 <linearGradient id="e" x1="0" x2="1" xlink:href="#d" y1="0.5" y2="0.5"/>
 <linearGradient id="f">
  <stop offset="0" stop-color="#4f52ff"/>
  <stop offset="1" stop-color="#4042e2"/>
 </linearGradient>
 <linearGradient id="g" x1="0.07" x2="1.91" xlink:href="#f" y1="0.91" y2="-0.31"/>
 <linearGradient id="h" x1="-0.48" x2="1.35" xlink:href="#f" y1="1.09" y2="-0.14"/>
 <linearGradient id="i" x1="0.54" x2="1.24" xlink:href="#d" y1="0.23" y2="-2.04"/>
 <linearGradient id="j" x1="1.31" x2="0.67" xlink:href="#f" y1="-29.68" y2="-5.98"/>
 <linearGradient id="k" x1="1.13" x2="0.6" xlink:href="#f" y1="-18.6" y2="-2.56"/>
 <linearGradient id="l" x1="1.08" x2="0.56" xlink:href="#f" y1="-17.49" y2="-1.47"/>
 <linearGradient id="m" x1="1.07" x2="0.52" xlink:href="#f" y1="-16.49" y2="-0.32"/>
 <linearGradient id="n">
  <stop offset="0" stop-color="#ff928e"/>
  <stop offset="1" stop-color="#fe7062"/>
 </linearGradient>
 <linearGradient id="o" x1="0.51" x2="0.46" xlink:href="#n" y1="0.12" y2="1.05"/>
 <linearGradient id="p">
  <stop offset="0" stop-color="#e1473d"/>
  <stop offset="1" stop-color="#e9605a"/>
 </linearGradient>
 <linearGradient id="q" x1="11.14" x2="4.63" xlink:href="#p" y1="-2.2" y2="-0.55"/>
 <linearGradient id="r" x1="11.82" x2="5.3" xlink:href="#p" y1="-2.36" y2="-0.71"/>
 <linearGradient id="s" x1="0.94" x2="-1.89" xlink:href="#d" y1="-0.48" y2="6.01"/>
 <linearGradient id="t">
  <stop offset="0" stop-color="#febbba"/>
  <stop offset="1" stop-color="#ff928e"/>
 </linearGradient>
 <linearGradient id="u" x1="0" x2="1" xlink:href="#t" y1="0.5" y2="0.5"/>
 <linearGradient id="v" x1="-19.78" x2="-17.62" xlink:href="#d" y1="8.21" y2="7.39"/>
 <linearGradient id="w" x1="3.08" x2="-3.94" xlink:href="#d" y1="-2.22" y2="5.38"/>
 <linearGradient id="x" x1="0" x2="1" xlink:href="#t" y1="0.5" y2="0.5"/>
 <linearGradient id="y" x1="-13.9" x2="-12.38" xlink:href="#d" y1="8" y2="7.2"/>
 <linearGradient id="z" x1="-7.19" x2="-6.59" xlink:href="#n" y1="-10.47" y2="-9.6"/>
 <linearGradient id="A" x1="1.12" x2="-1.87" xlink:href="#t" y1="0.21" y2="1.76"/>
 <linearGradient id="B" x1="0.76" x2="-0.27" xlink:href="#t" y1="0.04" y2="1.77"/>
 <linearGradient id="C" x1="-0.52" x2="1.35" xlink:href="#t" y1="1.72" y2="-0.45"/>
 <linearGradient id="D" x1="-18.17" x2="-16.65" xlink:href="#n" y1="-26.62" y2="-24.4"/>
 <linearGradient id="E" x1="0" x2="1" xlink:href="#t" y1="0.5" y2="0.5"/>
 <linearGradient id="F" x1="0.38" x2="0.9" xlink:href="#d" y1="-0.06" y2="2.43"/>
 <linearGradient id="G" x1="0.93" x2="0.36" xlink:href="#f" y1="-3.5" y2="1.8"/>
 <linearGradient id="H" x1="0.6" x2="0.46" xlink:href="#f" y1="-1.23" y2="1.15"/>
 <linearGradient id="I" x1="0" x2="1" xlink:href="#t" y1="0.5" y2="0.5"/>
 <linearGradient id="J" x1="0.08" x2="0.93" xlink:href="#t" y1="1.28" y2="-0.15"/>
 <linearGradient id="K" x1="0.89" x2="-0.06" xlink:href="#t" y1="0.68" y2="0.1"/>
 <linearGradient id="L" x1="-0.1" x2="0.83" xlink:href="#d" y1="-0.07" y2="0.68"/>
 <linearGradient id="M" x1="1.94" x2="-0.84" xlink:href="#t" y1="1.9" y2="-0.63"/>
 <g class="layer">
  <title>Layer 1</title>
  <path d="m2476.24,2394.14c-72.79,75.04 -137.93,119.14 -187.79,152.44c-486.36,324.74 -1042.31,231.15 -1214.2,199.15c-277.31,-51.61 -511.41,-88.02 -712.54,-269.74c-457.03,-412.9 -434.8,-1274.26 -85.57,-1807.83c41.4,-63.26 390.1,-580.14 947.26,-652.97c13.62,-1.78 23.79,-2.8 32.7,-3.74c86.19,-9.12 620.29,-57.29 1055.81,307.58c62.34,52.23 162.66,146.44 255.7,290.13c340.17,525.37 341.25,1339.05 -91.37,1784.98z" fill="url(#b)" id="svg_2"/>
  <path d="m2032.23,1771.65s-9,-378.24 165.22,-479.47c174.21,-101.24 505.45,-164.53 517.87,-707.65c7.27,-317.96 15.14,-456.99 20.41,-517.6c2.06,-23.65 -18.96,-42.74 -42.28,-38.34c-165,31.08 -700.99,159.02 -813.37,524.86c-133.22,433.71 152.15,1218.2 152.15,1218.2z" fill="#91b3fa" id="svg_3"/>
  <path d="m2565.85,179.7c-181.12,161.53 -390.55,447.4 -502.17,733.28c-14.33,47.11 -56.24,147.31 -74.44,325.32c-16.26,148.47 -8.18,305.35 11.53,409.21c1.25,6.56 7.58,10.87 14.15,9.63c11.29,-2.14 9.78,-14.29 9.68,-13.9c-22.51,-177.43 -13.17,-398.28 38.42,-597.54c65.9,-244.68 212.89,-481.9 364.92,-683.09l15.65,-19.82c117.79,-151.27 142.59,-152.38 131.57,-162.93c-2.6,-2.49 -6.67,-2.51 -9.31,-0.16z" fill="#bdd0fb" id="svg_4"/>
  <path d="m1752.26,2498.88c-23.57,11.55 223.14,-298.69 300.43,-785.95c36.41,-229.61 36.89,-517.29 167.68,-628.15c108.86,-92.27 479.29,-34.02 600.49,-11.88c15.14,2.77 20.24,21.9 8.45,31.8c-58.12,48.81 -182.46,163.95 -214.85,279.99c-42.71,152.95 -188.12,250.24 -318.3,276.56s-202.59,51.88 -266.01,260.07c-63.42,208.19 -210.92,544.71 -277.89,577.55l0,0.01z" fill="#bdd0fb" id="svg_5"/>
  <path d="m2650.4,1137.52c-154.64,6.48 -320.63,77.02 -404.87,209.34l-7.95,12.62c-18.36,29.61 -122.43,240.07 -180.23,414.54c-0.72,2.17 0.46,4.52 2.64,5.24c3.69,1.22 5.54,-2.84 5.19,-2.48c40.27,-98.56 98.11,-223.52 144.17,-316.96c49.4,-101.97 83.97,-171.02 196.65,-237.17c125.42,-71.23 245.23,-78.56 244.87,-78.49c1.83,-0.19 3.16,-1.82 2.98,-3.65c-0.19,-1.76 -1.71,-3.06 -3.46,-2.99l0.01,0z" fill="url(#c)" id="svg_6"/>
  <path d="m2488.96,1733.48c-14.8,-26.41 -21.14,-56.64 -17.6,-86.72c4.56,-38.68 7,-86.69 2.45,-139.25c-12.7,-146.5 -73.92,-270.38 -178.31,-362.53c-13.73,-12.12 -20.78,-30.24 -18.45,-48.4c3.48,-27.24 4.64,-59.88 0,-95.93c-11.01,-85.62 -57.62,-206.22 -214.34,-305.49c-16.04,-50.33 -62.34,-142.09 -194.4,-214.27c-98,-53.56 -190.91,-66.42 -261.61,-36.22c-29.19,12.47 -53.45,32.09 -70.66,56.48c-20.33,3.72 -41.84,12.03 -61.6,27.07c-11.05,8.41 -20.91,18.34 -29.58,29.77c-12.92,17.02 -38.41,17.02 -51.32,0c-8.68,-11.43 -18.54,-21.36 -29.59,-29.77c-19.76,-15.04 -41.26,-23.35 -61.6,-27.07c-17.21,-24.39 -41.47,-44.01 -70.65,-56.48c-70.72,-30.2 -163.62,-17.34 -261.62,36.22c-132.05,72.18 -178.35,163.94 -194.39,214.27c-156.72,99.27 -203.34,219.87 -214.35,305.49c-2.86,22.18 -3.51,43.07 -2.78,62.21c1.49,39.17 -12.53,77.51 -40.26,105.21c-89.43,89.35 -142.05,204.85 -153.71,339.44c-4.6,53.06 -2.07,101.48 2.58,140.35c3.51,29.37 -2.63,58.93 -17.19,84.67c-54.77,96.75 -61.87,264.46 -13.16,450.82c29.14,111.46 79.01,193.13 148.22,242.71c0.12,0.08 0.24,0.17 0.36,0.26c19.35,13.81 33.38,33.64 39.95,56.48c2.52,8.74 5.92,17.42 10.21,25.98c56.93,113.66 259.19,174.29 434.38,183.97c8.91,0.49 17.63,0.73 26.19,0.73c86.17,0 154.53,-24.91 203.46,-74.23c38.22,-38.51 55.96,-83.65 64.08,-120.2c69.14,-8.44 119.6,-33.55 150.43,-74.98c1.82,-2.44 3.47,-4.91 5.09,-7.38c1.63,2.47 3.28,4.93 5.1,7.38c30.83,41.43 81.29,66.54 150.44,74.98c8.11,36.56 25.85,81.68 64.07,120.2c48.93,49.32 117.29,74.24 203.46,74.23c8.55,0 17.29,-0.24 26.19,-0.73c175.2,-9.68 377.46,-70.31 434.39,-183.97c4.29,-8.56 7.69,-17.24 10.2,-25.98c6.58,-22.84 20.6,-42.67 39.95,-56.48c0.12,-0.09 0.25,-0.18 0.37,-0.26c69.2,-49.58 119.07,-131.25 148.21,-242.71c48.56,-185.74 41.66,-352.97 -12.61,-449.87z" fill="url(#e)" id="svg_7"/>
  <path d="m1373.86,740.32l0,1566.99s40.28,129.74 -170.98,127.65c0,0 12.87,204 -229.23,190.63s-441.47,-118.75 -372.45,-222.53c0,0 -138.88,-5.56 -199.31,-236.73c-60.43,-231.16 -23.25,-406.66 47.84,-444.46c0,0 -113.11,-366.25 194.21,-569.69c0,0 -105.86,-243.22 190.41,-413.9c0,0 12.38,-113.32 167.99,-198.37c146.21,-79.92 240.06,-39.26 258.15,27.85c0,0 113.37,-31.37 113.37,172.56z" fill="url(#g)" id="svg_8"/>
  <path d="m1464.54,740.32l0,1566.99s-40.29,129.74 170.98,127.65c0,0 -12.87,204 229.22,190.63s441.47,-118.75 372.45,-222.53c0,0 138.88,-5.56 199.31,-236.73c60.43,-231.16 23.25,-406.66 -47.84,-444.46c0,0 113.11,-366.25 -194.21,-569.69c0,0 105.86,-243.22 -190.4,-413.9c0,0 -12.38,-113.32 -167.99,-198.37c-146.22,-79.92 -240.07,-39.26 -258.16,27.85c0,0 -113.36,-31.37 -113.36,172.56z" fill="url(#h)" id="svg_9"/>
  <g fill="#91b3fa" id="svg_10">
   <path d="m1243.99,760.19c-0.43,0 -0.86,-0.04 -1.29,-0.12c-0.93,-0.18 -92.56,-18.91 -81.48,-111.07c10.48,-87.2 97.82,-88.04 99.3,-88.04l0.01,0c3.75,0.02 6.78,3.08 6.76,6.84c-0.02,3.74 -3.06,6.75 -6.8,6.75c-0.02,0.01 -0.03,0.01 -0.07,0c-3.56,0 -76.68,0.97 -85.71,76.07c-9.55,79.47 67.29,95.46 70.57,96.11c3.67,0.72 6.08,4.28 5.37,7.96c-0.64,3.25 -3.48,5.5 -6.66,5.5z" id="svg_11"/>
   <path d="m1062.71,1056.91c-17.85,0 -35.82,-3.48 -50.74,-9.34c-21.78,-8.55 -35.38,-21.36 -37.29,-35.13c-0.52,-3.72 2.08,-7.15 5.79,-7.67c3.71,-0.56 7.15,2.08 7.67,5.8c1.18,8.51 12.22,17.84 28.8,24.35c29.83,11.71 72.82,13.12 97.28,-6.83c16.28,-13.28 22.06,-34.29 17.17,-62.45c-16,-92.18 -92.6,-99.21 -181.29,-107.36c-19.11,-1.75 -38.86,-3.56 -58.1,-6.34c-36.76,-5.32 -60.16,-18.49 -69.58,-39.17c-13.34,-29.32 7.17,-61.69 8.05,-63.06c2.03,-3.15 6.24,-4.05 9.39,-2.02c3.15,2.03 4.06,6.23 2.03,9.38c-0.32,0.51 -17.33,27.71 -7.07,50.12c7.39,16.16 27.28,26.69 59.13,31.29c18.89,2.73 38.46,4.53 57.39,6.27c86.36,7.93 175.66,16.12 193.44,118.57c7.22,41.54 -7.96,63.88 -21.96,75.3c-15.81,12.9 -37.88,18.29 -60.11,18.29z" id="svg_12"/>
   <path d="m862.08,1330.96c-20.07,0 -37.29,-8.36 -43.33,-22.32c-1.49,-3.45 0.1,-7.45 3.54,-8.94c3.44,-1.49 7.44,0.1 8.94,3.54c5,11.56 25.32,17.13 45.32,12.41c12.04,-2.85 51.05,-16.68 47.75,-75.09c-2.1,-37.35 -14.36,-62.93 -36.41,-76.01c-26.78,-15.87 -67.91,-12.08 -115.84,10.71c-94.01,44.69 -124.66,-5.14 -125.92,-7.29c-1.9,-3.24 -0.82,-7.4 2.42,-9.3c3.23,-1.89 7.36,-0.82 9.27,2.37c1.13,1.83 26.45,40.9 108.4,1.94c52.9,-25.14 97.36,-28.64 128.6,-10.12c25.82,15.32 40.71,45.38 43.06,86.94c3.08,54.79 -28.04,81.94 -58.2,89.08c-5.97,1.4 -11.9,2.08 -17.6,2.08z" id="svg_13"/>
   <path d="m786.11,1606.77c-6.2,0 -12.51,-0.46 -18.91,-1.48c-38.26,-6.1 -70.99,-30.9 -97.28,-73.71c-26.33,-42.87 -34.27,-84.44 -23.59,-123.53c18.04,-66.04 82.31,-100.69 85.04,-102.14c3.31,-1.76 7.42,-0.49 9.18,2.83c1.75,3.31 0.49,7.43 -2.82,9.18c-0.62,0.33 -61.89,33.49 -78.32,93.81c-9.6,35.3 -2.17,73.23 22.09,112.74c24.1,39.24 53.63,61.92 87.75,67.38c58.87,9.46 112.81,-35.54 113.35,-36c2.87,-2.43 7.15,-2.06 9.58,0.79c2.42,2.86 2.07,7.14 -0.79,9.57c-2.15,1.83 -48.49,40.56 -105.28,40.56z" id="svg_14"/>
   <path d="m1202.71,1635.57c-1.03,0 -2.08,-0.23 -3.06,-0.73c-3.35,-1.7 -4.69,-5.79 -2.99,-9.14c0.24,-0.49 25.3,-53.47 -28.61,-139.61c-53.85,-86.02 -156.17,-67.25 -157.2,-67.05c-3.7,0.73 -7.26,-1.69 -7.97,-5.37c-0.72,-3.69 1.69,-7.26 5.37,-7.97c1.12,-0.22 112.58,-20.66 171.32,73.18c58.31,93.17 30.42,150.57 29.21,152.97c-1.2,2.36 -3.59,3.72 -6.07,3.72z" id="svg_15"/>
   <path d="m1076.59,1926.92c-1.93,0 -3.83,-0.81 -5.18,-2.39c-2.43,-2.85 -2.09,-7.14 0.76,-9.58c14.05,-11.97 30.26,-31.85 27.68,-58.52c-3.41,-35.39 -39.37,-73.38 -103.98,-109.85c-70.42,-39.75 -128.24,-50.32 -171.87,-31.44c-49.94,21.63 -63.72,75.86 -63.86,76.41c-0.89,3.64 -4.57,5.87 -8.2,5c-3.65,-0.89 -5.89,-4.55 -5.01,-8.2c0.6,-2.49 15.35,-61.19 71.51,-85.61c47.75,-20.77 109.7,-9.99 184.11,32c69.63,39.3 106.92,79.81 110.83,120.39c2.48,25.72 -8.72,49.98 -32.39,70.17c-1.28,1.09 -2.84,1.62 -4.4,1.62z" id="svg_16"/>
   <path d="m1161.48,2209.76c-38.47,0 -75.9,-19.9 -96.49,-54.39c-1.92,-3.22 -0.86,-7.4 2.36,-9.32c3.22,-1.92 7.39,-0.87 9.32,2.35c24.61,41.25 76.66,58.75 121.05,40.72c51.53,-20.92 71.34,-79.51 52.99,-156.73c-25.77,-108.48 -26.49,-175.51 -2.25,-210.96c11.76,-17.19 29.68,-27.23 54.78,-30.71c59.6,-8.24 76.03,23.11 76.7,24.45c1.68,3.36 0.31,7.44 -3.04,9.12c-3.35,1.67 -7.39,0.33 -9.09,-2.98c-0.62,-1.16 -13.62,-23.93 -62.71,-17.13c-21.38,2.97 -35.82,10.88 -45.42,24.93c-21.63,31.61 -20.23,97.08 4.25,200.14c23.59,99.29 -16.09,154.19 -61.1,172.46c-13.41,5.45 -27.45,8.05 -41.35,8.05z" id="svg_17"/>
   <path d="m766.69,2029.8c-86.61,0.02 -128.6,-114.38 -163.12,-208.41c-9,-24.53 -17.51,-47.69 -26.19,-67.31c-13.88,-31.32 -31.37,-49.41 -51.99,-53.77c-29.68,-6.25 -56.8,17.93 -57.07,18.17c-2.78,2.53 -7.08,2.31 -9.6,-0.46c-2.52,-2.78 -2.31,-7.08 0.46,-9.6c1.32,-1.19 32.58,-29.11 69.03,-21.41c25.13,5.32 45.86,26.03 61.6,61.57c8.86,20.02 17.44,43.39 26.52,68.12c38.88,105.9 82.92,225.94 181.9,194.2c37.07,-11.89 59.03,-29.37 65.29,-51.96c10.12,-36.58 -23.7,-75.69 -24.04,-76.08c-2.48,-2.82 -2.2,-7.11 0.62,-9.59c2.83,-2.48 7.12,-2.19 9.59,0.62c1.6,1.83 38.99,45.1 26.92,88.68c-7.55,27.28 -32.52,47.9 -74.23,61.27c-12.68,4.07 -24.56,5.96 -35.69,5.97l0,-0.01z" id="svg_18"/>
   <path d="m610.83,2400.81c-1.15,0 -2.31,-0.3 -3.38,-0.91c-3.25,-1.87 -4.37,-6.03 -2.5,-9.28c71.03,-123.31 175.23,-161.38 179.64,-162.93c3.52,-1.26 7.41,0.59 8.67,4.12c1.25,3.54 -0.59,7.42 -4.13,8.68c-1.03,0.37 -104,38.16 -172.4,156.91c-1.26,2.19 -3.54,3.41 -5.9,3.41z" id="svg_19"/>
   <path d="m1193.15,2429.52c-1.72,0 -3.43,-0.64 -4.75,-1.93c-45.26,-44.23 -93.41,-37.24 -139.96,-30.49c-42.07,6.1 -85.57,12.42 -122.03,-22.21c-27.47,-26.09 -40.85,-54.8 -39.78,-85.35c1.95,-55.48 50.76,-96.35 52.84,-98.06c2.89,-2.39 7.18,-1.97 9.56,0.92c2.39,2.89 1.98,7.17 -0.91,9.57c-0.46,0.38 -46.22,38.8 -47.91,88.12c-0.9,26.46 11.06,51.68 35.56,74.94c31.68,30.09 68.3,24.78 110.72,18.62c47.51,-6.89 101.35,-14.7 151.4,34.21c2.69,2.63 2.74,6.93 0.12,9.61c-1.33,1.37 -3.1,2.05 -4.86,2.05z" id="svg_20"/>
   <path d="m1672.39,771.72c-16.26,0 -34.22,-3.66 -53.52,-12.09c-31.81,-13.9 -52.91,-35.12 -62.73,-63.07c-19.34,-55.09 12.13,-116.09 13.48,-118.66c1.74,-3.32 5.84,-4.6 9.17,-2.86c3.32,1.74 4.6,5.85 2.86,9.17c-0.3,0.58 -30.07,58.46 -12.66,107.91c8.52,24.21 27.14,42.73 55.33,55.05c56.74,24.79 99.91,3.56 117.51,-28.49c11.46,-20.85 13.31,-50.36 -9.69,-65.85c-3.12,-2.09 -3.94,-6.32 -1.85,-9.43c2.1,-3.11 6.32,-3.94 9.44,-1.84c25.77,17.36 31.54,51.76 14.01,83.66c-14.43,26.28 -43.18,46.5 -81.35,46.5z" id="svg_21"/>
   <path d="m1756.87,932.43c-2.8,0 -5.43,-1.75 -6.41,-4.55c-0.68,-1.96 -16.45,-48.26 8.02,-81.17c16.33,-21.98 46.16,-32.22 88.72,-30.31c74.07,3.23 119.16,-4.57 137.79,-23.89c8.13,-8.44 11.37,-19.18 10.19,-33.79c-0.31,-3.74 2.48,-7.02 6.22,-7.32c3.75,-0.35 7.03,2.48 7.32,6.22c1.5,18.53 -3.06,33.03 -13.95,44.32c-21.78,22.6 -68.87,31.5 -148.17,28.03c-37.68,-1.63 -63.68,6.69 -77.17,24.79c-20.19,27.08 -6.28,68.23 -6.14,68.64c1.23,3.55 -0.64,7.42 -4.19,8.65c-0.73,0.26 -1.49,0.38 -2.23,0.38z" id="svg_22"/>
   <path d="m1560.74,1140.49c-0.36,0 -0.72,0 -1.08,-0.01c-3.76,-0.06 -6.74,-3.16 -6.67,-6.92c0.07,-3.75 3.1,-6.73 6.92,-6.67c0.27,0.01 0.54,0.01 0.81,0.01c25.79,0 54.72,-22.56 70.62,-55.18c18.5,-37.97 14.98,-78.58 -9.42,-108.62c-17.65,-21.72 -35.16,-32.42 -52,-31.59c-22.66,1.02 -37.5,22.72 -37.65,22.94c-2.09,3.12 -6.32,3.95 -9.43,1.87c-3.11,-2.08 -3.96,-6.29 -1.88,-9.41c0.75,-1.12 18.66,-27.56 48.22,-28.97c21.41,-1.06 42.73,11.29 63.29,36.6c27.83,34.25 31.97,80.28 11.08,123.14c-18.38,37.72 -51.54,62.81 -82.81,62.82l0,-0.01z" id="svg_23"/>
   <path d="m1951.94,1217.2c-25.89,0 -57.26,-7.85 -94.02,-30.4c-71.68,-43.97 -81.51,-114.75 -68.15,-162c11.35,-40.15 38.35,-67.12 67.18,-67.12l0.05,0c23.28,0.02 39.97,6.24 49.62,18.47c12.33,15.62 7.93,34.87 7.74,35.68c-0.87,3.65 -4.54,5.91 -8.19,5.04c-3.64,-0.87 -5.89,-4.52 -5.04,-8.16c0.07,-0.32 2.97,-13.93 -5.26,-24.24c-6.97,-8.74 -20.05,-13.18 -38.89,-13.19c-0.01,0 -0.02,0 -0.03,0c-22.33,0 -44.57,23.52 -54.1,57.22c-12.65,44.73 -2.96,106.76 62.18,146.71c109.49,67.16 163.54,-4.32 165.79,-7.4c2.2,-3.02 6.45,-3.7 9.48,-1.5c3.03,2.2 3.72,6.43 1.53,9.47c-0.43,0.59 -30.88,41.41 -89.89,41.42z" id="svg_24"/>
   <path d="m1945.41,1620.34c-29.59,0 -64.91,-10.38 -104.41,-41.43c-118.77,-93.36 -19.6,-228.25 -18.59,-229.6c2.26,-3 6.51,-3.6 9.51,-1.35c3,2.25 3.61,6.51 1.36,9.51c-0.24,0.32 -23.82,32.13 -33.32,74.06c-12.49,55.1 4.14,101.09 49.44,136.7c45.74,35.95 90.24,46.97 132.28,32.78c31.25,-10.57 49.26,-31.61 49.44,-31.82c2.42,-2.87 6.7,-3.24 9.58,-0.81c2.87,2.41 3.23,6.7 0.81,9.57c-0.53,0.64 -36.78,42.39 -96.1,42.39z" id="svg_25"/>
   <path d="m2162.21,1489.04c-24.35,0 -50.91,-10.76 -76.38,-31.76c-54.64,-45.03 -69.68,-111.89 -60.34,-158.17c7.58,-37.61 30.43,-64.73 62.71,-74.41c73.57,-22.07 88.54,-60.24 88.68,-60.63c1.31,-3.49 5.2,-5.31 8.7,-4.03c3.51,1.27 5.34,5.11 4.1,8.63c-0.65,1.82 -16.74,44.8 -97.57,69.05c-27.31,8.2 -46.74,31.55 -53.3,64.08c-8.53,42.3 5.38,103.54 55.67,145c36.7,30.25 75.17,36.93 102.89,17.87c18.35,-12.62 26.93,-34.08 20.85,-52.2c-1.19,-3.56 0.73,-7.41 4.28,-8.61c3.57,-1.19 7.42,0.73 8.61,4.29c7.99,23.84 -2.72,51.69 -26.04,67.72c-12.82,8.82 -27.39,13.17 -42.86,13.17z" id="svg_26"/>
   <path d="m2065.13,2012.03c-0.2,0 -0.39,0 -0.59,0c-30.23,-0.19 -53.22,-9.11 -68.34,-26.52c-23.6,-27.17 -18.83,-64.71 -18.61,-66.3c0.5,-3.72 3.95,-6.35 7.65,-5.82c3.71,0.5 6.32,3.92 5.82,7.64c-0.08,0.65 -4.01,33.31 15.47,55.65c12.45,14.28 31.99,21.6 58.09,21.75l0.5,0c85.24,0 156.47,-134.33 171.85,-190.5c1.2,-4.37 2.37,-8.97 3.58,-13.7c8.61,-33.7 19.32,-75.63 52.47,-90.84c23.18,-10.63 53.01,-6.57 91.24,12.4c3.37,1.67 4.74,5.74 3.07,9.11c-1.66,3.36 -5.74,4.74 -9.1,3.07c-33.85,-16.8 -60.61,-20.91 -79.54,-12.22c-27.25,12.5 -36.66,49.34 -44.97,81.84c-1.23,4.81 -2.42,9.49 -3.64,13.93c-14.1,51.49 -86.94,200.51 -184.95,200.51z" id="svg_27"/>
   <path d="m1726.96,2173.13c-0.57,0 -1.15,-0.07 -1.72,-0.22c-101.85,-26.75 -166.94,-86.67 -183.28,-168.72c-17.39,-87.29 23.51,-172.62 70.83,-208.58c53.86,-40.96 121.99,-32.99 202.51,23.7c2.42,1.7 4.91,3.46 5.91,4.05c2.92,0.99 4.89,3.89 4.58,7.09c-0.35,3.73 -3.62,6.48 -7.41,6.11c-2.53,-0.24 -4.14,-1.37 -10.91,-6.14c-75.11,-52.88 -137.84,-60.96 -186.46,-24c-44.65,33.95 -81.44,116.21 -65.72,195.11c10.8,54.25 49.66,125.73 173.4,158.23c3.63,0.95 5.8,4.67 4.84,8.3c-0.8,3.05 -3.55,5.07 -6.57,5.07z" id="svg_28"/>
   <path d="m1637.83,2429.52c-3.69,0 -6.72,-2.95 -6.79,-6.66c-0.03,-1.26 -0.33,-31.11 24.6,-56.31c22.42,-22.66 57.39,-33.89 103.89,-33.51c84.44,0.74 143.7,-17.4 158.51,-48.61c9.5,-20.02 1.16,-46.01 -24.8,-77.24c-2.4,-2.88 -2.01,-7.17 0.88,-9.57c2.88,-2.39 7.17,-2 9.57,0.89c29.64,35.65 38.6,66.52 26.63,91.75c-17.4,36.65 -79.68,57.22 -170.92,56.37c-42.66,-0.38 -74.36,9.53 -94.1,29.48c-20.93,21.16 -20.68,46.23 -20.67,46.48c0.07,3.75 -2.91,6.85 -6.66,6.93c-0.05,0 -0.09,0 -0.14,0z" id="svg_29"/>
   <path d="m2227.61,2403.53c-2.67,0 -5.2,-1.58 -6.28,-4.2c-49.87,-120.71 -158.88,-134.45 -159.97,-134.57c-3.73,-0.43 -6.41,-3.8 -5.99,-7.52c0.43,-3.73 3.8,-6.4 7.53,-5.99c1.17,0.14 118.09,14.86 170.99,142.89c1.44,3.47 -0.22,7.44 -3.69,8.88c-0.84,0.34 -1.72,0.51 -2.59,0.51z" id="svg_30"/>
  </g>
  <path d="m1617.48,1143.17c-0.58,-7.22 -7.96,-13.47 -20.44,-18.48c13.57,-7.48 21.07,-15.5 20.44,-23.37c-1.92,-23.8 -77.29,-37.14 -168.35,-29.8c-91.05,7.34 -163.31,32.59 -161.39,56.39c0.58,7.22 7.95,13.47 20.44,18.48c-13.57,7.48 -21.08,15.5 -20.44,23.36c0.58,7.22 7.95,13.47 20.44,18.48c-13.57,7.48 -21.08,15.5 -20.44,23.37c0.58,7.22 7.95,13.46 20.44,18.47c-13.57,7.48 -21.08,15.51 -20.44,23.37c0.85,10.53 16.08,19 40.67,24.55c-0.32,7.78 -0.15,16.31 0.62,25.72c3.56,43.85 52.89,78.24 118.13,78.24c65.25,0 121.72,-46.88 122.36,-90.88c0.16,-10.78 -0.3,-20.27 -1.28,-28.71c31.22,-10.42 50.24,-23.16 49.24,-35.51c-0.58,-7.21 -7.96,-13.46 -20.44,-18.47c13.57,-7.49 21.07,-15.5 20.44,-23.37c-0.58,-7.22 -7.96,-13.47 -20.44,-18.48c13.57,-7.48 21.07,-15.5 20.44,-23.36z" fill="url(#i)" id="svg_31"/>
  <path d="m1407,1287.46c-27.04,0 -51.79,-1.99 -72.23,-5.9c-1.19,-0.23 -1.96,-1.37 -1.74,-2.56c0.23,-1.19 1.37,-1.96 2.56,-1.74c31.99,6.13 74.72,7.48 120.32,3.8c37.3,-3.01 72.2,-9.03 100.9,-17.4c1.16,-0.34 2.37,0.32 2.71,1.48c0.34,1.16 -0.33,2.38 -1.49,2.72c-28.98,8.45 -64.17,14.53 -101.77,17.56c-16.94,1.37 -33.49,2.04 -49.26,2.04z" fill="url(#j)" id="svg_32"/>
  <path d="m1407.46,1245.58c-35.14,0 -66.54,-3.3 -88.69,-9.61c-1.16,-0.33 -1.83,-1.54 -1.5,-2.7c0.33,-1.16 1.53,-1.84 2.7,-1.51c31.56,8.99 82.38,11.78 135.94,7.46c52.98,-4.27 102.39,-15.02 132.17,-28.76c1.1,-0.5 2.4,-0.03 2.9,1.07c0.51,1.1 0.03,2.4 -1.07,2.9c-30.22,13.94 -80.19,24.84 -133.65,29.15c-16.69,1.34 -33.12,2 -48.81,2l0.01,0z" fill="url(#k)" id="svg_33"/>
  <path d="m1407,1203.77c-37.93,0 -71.13,-3.88 -93.47,-11.25c-1.15,-0.38 -1.77,-1.61 -1.4,-2.76c0.38,-1.15 1.61,-1.77 2.76,-1.39c31.1,10.25 83.81,13.61 141.02,9.01c52.97,-4.28 102.38,-15.03 132.17,-28.77c1.1,-0.5 2.4,-0.02 2.9,1.07c0.51,1.1 0.03,2.4 -1.07,2.91c-30.23,13.94 -80.19,24.83 -133.65,29.14c-16.94,1.37 -33.51,2.04 -49.26,2.04z" fill="url(#l)" id="svg_34"/>
  <path d="m1407.3,1161.91c-30.09,0 -57.47,-2.44 -78.74,-7.16c-1.18,-0.27 -1.93,-1.43 -1.66,-2.61c0.26,-1.18 1.43,-1.93 2.6,-1.66c32,7.11 78.07,8.95 126.41,5.05c52.5,-4.23 101.66,-14.87 131.5,-28.45c1.09,-0.5 2.39,-0.01 2.89,1.09c0.5,1.09 0.02,2.39 -1.08,2.89c-30.27,13.78 -79.98,24.56 -132.96,28.83c-16.74,1.35 -33.23,2.02 -48.96,2.02z" fill="url(#m)" id="svg_35"/>
  <path d="m1226.62,931.95c-11.06,-39.17 -29.84,-75.78 -55.14,-107.66c-54.21,-68.32 -142.64,-207.26 -153.52,-396.88c-15.84,-275.82 228.78,-413.91 452,-395.16s443.48,184.95 419.37,441.54c-14.84,157.88 -103.21,277.64 -169,346.41c-41.78,43.68 -71.59,97.17 -87.72,155.41c-19.74,71.3 -66.74,160.14 -178.43,165.55c-144.52,7.01 -204.54,-127.7 -227.56,-209.21z" fill="url(#o)" id="svg_36"/>
  <path d="m1491.1,1086.16l78.11,-507.99c1.61,-10.5 6.77,-17.54 11.53,-15.74c4.76,1.8 7.31,11.77 5.7,22.26c-0.05,0.28 -0.1,0.62 -0.15,0.9l-88.97,503.27c-0.67,3.79 -2.59,6.18 -4.29,5.34c-1.65,-0.81 -2.49,-4.37 -1.93,-8.04z" fill="url(#q)" id="svg_37"/>
  <path d="m1410.03,1090.2l-78.11,-508c-1.61,-10.49 -6.77,-17.54 -11.53,-15.74c-4.76,1.8 -7.31,11.77 -5.69,22.26c0.04,0.28 0.09,0.63 0.14,0.9l88.97,503.28c0.67,3.78 2.59,6.17 4.29,5.33c1.65,-0.8 2.49,-4.37 1.93,-8.03z" fill="url(#r)" id="svg_38"/>
  <path d="m1568.65,534.55c-1.99,-3.19 -6.58,-4.38 -10.26,-2.66l-43.49,20.32l-15.09,-43.01c-0.8,-2.25 -2.65,-4.24 -5.29,-5.33c-5,-2.06 -10.99,-0.21 -13.36,4.12l-0.08,0.14l-35.77,65.22l-33.19,-92.84l-0.05,-0.15c-0.81,-2.27 -2.53,-4.3 -5.02,-5.66c-5.57,-3.04 -12.92,-1.59 -16.42,3.23l-50.01,68.83c-2.03,2.82 -1.33,6.6 1.77,8.69c3.3,2.23 8.06,1.71 10.63,-1.16l44.02,-49.1l39.64,88.3l0.03,0.07c0.64,1.42 1.83,2.65 3.49,3.43c3.72,1.74 8.37,0.54 10.38,-2.69l38.25,-61.38l14.4,31.05l0.12,0.27c0.11,0.22 0.23,0.45 0.36,0.66c1.98,3.19 6.57,4.38 10.24,2.66l51.63,-24.12c3.67,-1.72 5.05,-5.7 3.07,-8.89z" fill="#fff" id="svg_39" opacity="0.67"/>
  <path d="m1722.03,749.9c-1.06,0 -2.12,-0.32 -3.04,-1c-2.26,-1.68 -2.73,-4.87 -1.05,-7.13c13.41,-18.07 25.7,-36.74 36.54,-55.5c1.4,-2.44 4.52,-3.27 6.96,-1.87c2.44,1.41 3.27,4.53 1.86,6.97c-11.03,19.09 -23.53,38.09 -37.18,56.47c-1,1.35 -2.54,2.06 -4.09,2.06z" fill="#fff" id="svg_40" opacity="0.67"/>
  <path d="m1786.28,639.63c-0.67,0 -1.36,-0.14 -2.02,-0.42c-2.59,-1.12 -3.77,-4.13 -2.65,-6.71c83.38,-192.02 11.32,-353.51 10.59,-355.12c-1.18,-2.55 -0.05,-5.58 2.51,-6.75c2.56,-1.17 5.58,-0.05 6.75,2.51c0.76,1.65 74.67,167.28 -10.5,363.43c-0.83,1.92 -2.71,3.06 -4.68,3.06z" fill="#fff" id="svg_41" opacity="0.67"/>
  <path d="m556.99,1175.62s588.55,-290.79 396.08,-504.9c-192.48,-214.11 -551.32,-128.53 -569.5,96.82c-18.18,225.35 418.58,172.48 173.42,408.08z" fill="#fff" id="svg_42"/>
  <path d="m903.28,729.6l-259.75,0c-1.97,0 -3.57,-1.6 -3.57,-3.58s1.6,-3.58 3.57,-3.58l259.75,0c1.98,0 3.58,1.6 3.58,3.58s-1.61,3.58 -3.58,3.58z" fill="#91b3fa" id="svg_43"/>
  <path d="m566.41,729.6l-77.07,0c-1.98,0 -3.58,-1.6 -3.58,-3.58s1.6,-3.58 3.58,-3.58l77.07,0c1.97,0 3.57,1.6 3.57,3.58s-1.6,3.58 -3.57,3.58z" fill="#91b3fa" id="svg_44"/>
  <path d="m912.03,782.18l-97.53,0c-1.98,0 -3.58,-1.6 -3.58,-3.57s1.6,-3.58 3.58,-3.58l97.53,0c1.97,0 3.58,1.6 3.58,3.58s-1.61,3.57 -3.58,3.57z" fill="#91b3fa" id="svg_45"/>
  <path d="m671.39,782.18l-173.3,0c-1.98,0 -3.58,-1.6 -3.58,-3.57s1.6,-3.58 3.58,-3.58l173.3,0c1.97,0 3.57,1.6 3.57,3.58s-1.6,3.57 -3.57,3.57z" fill="#91b3fa" id="svg_46"/>
  <path d="m920.78,834.77l-259.27,0c-1.97,0 -3.57,-1.6 -3.57,-3.58s1.6,-3.57 3.57,-3.57l259.27,0c1.98,0 3.58,1.6 3.58,3.57s-1.61,3.58 -3.58,3.58z" fill="#91b3fa" id="svg_47"/>
  <path d="m596.59,834.77l-89.75,0c-1.98,0 -3.58,-1.6 -3.58,-3.58s1.6,-3.57 3.58,-3.57l89.75,0c1.98,0 3.58,1.6 3.58,3.57s-1.6,3.58 -3.58,3.58z" fill="#91b3fa" id="svg_48"/>
  <path d="m362.59,2706.57s-5.84,33.03 -8.7,65.72c-1.12,12.78 8.74,23.87 21.55,24.41c43.54,1.81 136.66,5.33 170.08,3.84c5.02,-0.22 8.31,-5.36 6.45,-10.04c-1.56,-3.91 -4.56,-7.08 -8.39,-8.84l-153.83,-70.7l-27.16,-4.39z" fill="url(#s)" id="svg_49"/>
  <path d="m357.81,2687.17l4.68,39.5s26.95,12.54 45.35,-1.58l-11.16,-44.02l-38.87,6.1z" fill="url(#u)" id="svg_50"/>
  <path d="m361.33,1944.49c-2.02,10.32 -10.87,514.8 43.06,740.87c0.88,3.69 -0.99,7.49 -4.5,8.93c-8.27,3.38 -24.49,8.27 -43.92,8.92c-6.02,0.21 -11.41,-3.71 -13.11,-9.48c-15.41,-52.46 -89.28,-315.26 -98.91,-566.31c-10.77,-280.52 0,-9.55 0,-9.55l6.31,-173.4l111.07,0.02z" fill="url(#v)" id="svg_51"/>
  <path d="m185.63,2723.8s-9.28,16.67 -18.27,60.98c-1.63,8 3.97,15.66 12.09,16.45c14.38,1.42 36.51,3.24 54.24,3.11c8.17,-0.05 14.54,-7.17 13.56,-15.28c-1.96,-16.17 -8.08,-42.7 -26.98,-63.38l-34.64,-1.88z" fill="url(#w)" id="svg_52"/>
  <path d="m177.48,2672.99l10.95,59.74s10.83,8.05 32.25,2.22l-5.23,-64.28l-37.97,2.32z" fill="url(#x)" id="svg_53"/>
  <path d="m147.89,1959.97c-44.1,266.17 9.57,657.86 27.67,734.52c1.11,4.69 4.9,8.29 9.65,9.08c8.08,1.34 21.39,2.43 34.5,-1.38c4.52,-1.31 7.69,-5.39 7.88,-10.09c2.42,-61.98 -1.95,-442.47 39.15,-592.85c2.08,-7.62 6.73,-14.26 13.17,-18.84l79.77,-56.7l6.11,-91.66l-217.9,27.92z" fill="url(#y)" id="svg_54"/>
  <path d="m428.92,1455.63c-132.17,-2.18 -278,34.71 -278,34.71c-39.4,229.88 -6.89,495.03 -6.89,495.03c102.32,26.83 217.75,-16.4 217.75,-16.4c17,-96.09 96.35,-366.5 96.35,-366.5c64.58,-8.02 117.78,-26.65 161.59,-51.28c-33.42,-38.74 -49.17,-88.03 -56.02,-117.16c-46.73,14.52 -94.01,22.28 -134.78,21.6z" fill="url(#z)" id="svg_55"/>
  <path d="m819.33,1260.95c-12.98,-15.68 -29.42,-8.26 -29.42,-8.26c-19.45,82.16 -121.43,148.78 -226.2,181.34c6.84,29.13 22.59,78.42 56.01,117.16c173.88,-97.77 199.61,-290.24 199.61,-290.24z" fill="url(#A)" id="svg_56"/>
  <path d="m816.18,1264.94c1.36,4.32 -14.38,10.9 -23.64,-6.77c-0.32,-8.46 -5.47,-44.73 -0.41,-51.63c26.94,-36.73 79.17,-82.77 79.17,-82.77c8.83,8.71 1.56,17.26 1.56,17.26l-25.34,26.4c5.3,9.58 11.77,17.66 14.8,29.25c2.29,8.77 0.89,18.15 -3.54,26.13c-4.45,8.02 -10.52,18.43 -16.26,26.59c-10.86,15.43 -26.34,15.54 -26.34,15.54z" fill="url(#B)" id="svg_57"/>
  <path d="m836.44,1184.56l-23.1,19.58l-7.25,19.49l20.59,22.84s6.92,-38.68 12.07,-47.05c5.15,-8.37 2.48,-12.41 -2.31,-14.86z" fill="url(#C)" id="svg_58"/>
  <path d="m201.61,1618.32l-50.69,-127.98s-123.46,83.88 -143.76,190.23c23.33,1.72 65.77,7.79 107.32,28.77c9.13,-50.22 87.13,-91.02 87.13,-91.02z" fill="url(#D)" id="svg_59"/>
  <path d="m309.5,1738.74s-138.61,78.34 -185.38,11.45c-9.71,-13.89 -12.03,-27.69 -9.64,-40.85c-41.55,-20.98 -83.99,-27.05 -107.32,-28.77c-6.12,32.06 -2.88,66.16 15.96,100.63c81.92,149.86 304.72,-8.28 304.72,-8.28l-18.34,-34.18z" fill="url(#E)" id="svg_60"/>
  <path d="m292.84,1837.84l75.65,-264.17c0.86,-3 3.42,-5.19 6.52,-5.55c13.7,-1.6 53.42,-6.09 99.27,-9.97c55.23,-4.67 119.38,-8.46 157.7,-5.23c5.45,0.45 8.75,6.22 6.32,11.12c-21.79,44.1 -111.45,223.47 -156.35,282.23c-1.48,1.95 -3.78,3.09 -6.23,3.06l-175.52,-1.63c-5.1,-0.05 -8.76,-4.95 -7.36,-9.86z" fill="url(#F)" id="svg_61"/>
  <path d="m482.13,1535.25l54.84,-9.14c2.92,-0.49 5.32,2.31 4.39,5.12l-5.43,16.45c-0.47,1.43 -1.72,2.47 -3.22,2.67l-52.78,7.05c-2.73,0.36 -4.98,-2.12 -4.35,-4.8l3.36,-14.37c0.36,-1.54 1.62,-2.72 3.19,-2.98z" fill="url(#G)" id="svg_62"/>
  <path d="m441.06,1581.68l4.52,-23.53c0.45,-2.36 2.4,-4.15 4.79,-4.39l110.78,-11.24c3.73,-0.38 6.71,3.04 5.84,6.68l-7.05,29.33c-0.56,2.34 -2.6,4.04 -5.01,4.16l-108.25,5.45c-3.53,0.18 -6.28,-2.99 -5.62,-6.46z" fill="url(#H)" id="svg_63"/>
  <path d="m311.12,1774.02s-10.54,-43.33 -6.29,-58.71c4.25,-15.37 12.49,-35.13 39.94,-30.74s59.83,15.95 59.83,15.95s-1.63,20.03 -22.5,13.57l12.94,10.01s-1.85,16.03 -19.47,7.47l12.03,13.27s-7.57,13.17 -20.53,4.72c-12.97,-8.44 -19.18,29.68 -55.95,24.46z" fill="url(#I)" id="svg_64"/>
  <path d="m295.05,1348.33l-42.06,121.62c-0.7,2.02 0.13,4.25 2,5.28c11.46,6.34 52.76,24.66 102.53,-6.9c5.19,-3.29 8.72,-8.65 9.51,-14.74l13.61,-105.26l-85.6,0l0.01,0z" fill="url(#J)" id="svg_65"/>
  <path d="m386.55,1235.71s46.18,86.93 40.26,122.04s-63.15,32.6 -113.13,4.08l-34.92,-93.87l107.79,-32.25z" fill="url(#K)" id="svg_66"/>
  <path d="m315.89,1315.73c2.03,-0.9 2.78,-3.38 1.56,-5.24c-3.7,-5.65 -10.63,-17.18 -12.85,-27.28c0,0 -8.3,-5.32 21.13,-12.36c29.44,-7.05 73.33,-17.98 82.55,-43.03c9,-24.43 -14.64,-85.85 -52.34,-36.91c-1.43,1.86 -4.25,1.91 -5.68,0.04c-6.18,-8.04 -22.43,-24.74 -44.99,-14.62c-21.11,9.48 -23.49,24.95 -23.2,32.74c0.08,2.3 -1.97,4.08 -4.22,3.65c-10.67,-2.04 -36.29,-3.78 -48.25,22.49c-9.84,21.65 -3.44,33.9 2.39,39.89c1.88,1.94 1.06,5.14 -1.53,5.93c-7.02,2.15 -16.08,8.1 -15.17,24.53c1.25,22.72 26.66,20.72 33.89,19.69c1.19,-0.17 2.38,0.23 3.18,1.12c6.2,6.86 34.15,36 64.39,39.52c2.62,0.3 4.65,-2.28 3.79,-4.78l-13.09,-38.04c-0.61,-1.77 0.24,-3.71 1.95,-4.46l6.49,-2.88z" fill="url(#L)" id="svg_67"/>
  <path d="m321.15,1321.13s-32.88,-22.56 -35.28,-3.56c-2.41,19 29.6,27.52 45.46,20.43l-10.18,-16.87z" fill="url(#M)" id="svg_68"/>
  <image height="0" id="svg_70" width="0" x="182.04" xlink:href="./images/logo.svg" y="-143.48"/>
  <image height="0" id="svg_69" width="0" x="1803.78" xlink:href="./images/logo.svg" y="1513.04"/>
 </g>
</svg>