<svg xmlns="http://www.w3.org/2000/svg" xml:space="preserve" viewBox="0 0 333.3 330.5"><style>.st0{fill:#46505a}.st1{fill:#f98422}.st2{display:none}.st3{display:inline}.st4{fill:#fff}.st5,.st6{display:inline;fill:#fff}.st6{fill:#f98422}</style><g id="Ebene_1"><g id="_x32_c_pos"><path d="M243.3 55.7c-5.4.7-11.2 3.3-17.2 9.3-18.9 18.9-19 58.4-19 58.4s39.5-.1 58.4-19c6-6 8.6-11.9 9.3-17.2-4-6.2-8.7-12-14.1-17.4-5.4-5.4-11.3-10.1-17.4-14.1z" class="st0"/><path d="M142.5 60.8c-3.3 4.3-5.6 10.3-5.6 18.7 0 26.8 27.9 54.8 27.9 54.8s27.9-28 27.9-54.8c0-8.4-2.3-14.4-5.6-18.7-7.2-1.5-14.6-2.3-22.3-2.3-7.6 0-15.1.8-22.3 2.3zM187 269.7c3.3-4.3 5.6-10.3 5.6-18.7 0-26.8-27.9-54.8-27.9-54.8s-27.9 28-27.9 54.8c0 8.4 2.3 14.4 5.6 18.7 7.2 1.5 14.6 2.3 22.3 2.3 7.7 0 15.2-.8 22.3-2.3zM269.2 143c-4.3-3.3-10.3-5.6-18.7-5.6-26.8 0-54.8 27.9-54.8 27.9s28 27.9 54.8 27.9c8.4 0 14.4-2.3 18.7-5.6 1.5-7.2 2.3-14.6 2.3-22.3 0-7.7-.8-15.1-2.3-22.3zM60.4 187.5c4.3 3.3 10.3 5.6 18.7 5.6 26.8 0 54.8-27.9 54.8-27.9s-28-27.9-54.8-27.9c-8.4 0-14.4 2.3-18.7 5.6-1.5 7.2-2.3 14.6-2.3 22.3-.1 7.7.7 15.1 2.3 22.3zM254.4 223.4c-.7-5.4-3.3-11.2-9.3-17.2-18.9-18.9-58.4-19-58.4-19s.1 39.5 19 58.5c6 6 11.9 8.6 17.2 9.3 6.1-4 12-8.7 17.4-14.1 5.4-5.6 10.1-11.4 14.1-17.5zM75.2 107.1c.7 5.4 3.3 11.2 9.3 17.2 18.9 18.9 58.4 19 58.4 19s-.1-39.5-19-58.4c-6-6-11.9-8.6-17.2-9.3-6.2 4-12 8.7-17.4 14.1-5.4 5.5-10.1 11.3-14.1 17.4zM106.7 254.8c5.4-.7 11.2-3.3 17.2-9.3 18.9-18.9 19-58.4 19-58.4s-39.5.1-58.4 19c-6 6-8.6 11.9-9.3 17.2 4 6.1 8.7 12 14.1 17.4 5.4 5.4 11.2 10.1 17.4 14.1z" class="st1"/></g></g></svg>