<?xml version="1.0" encoding="utf-8"?>
<!-- Generator: Adobe Illustrator 27.3.0, SVG Export Plug-In . SVG Version: 6.00 Build 0)  -->
<svg version="1.1" xmlns="http://www.w3.org/2000/svg" xmlns:xlink="http://www.w3.org/1999/xlink" x="0px" y="0px"
	 viewBox="0 0 841.89 368.5" style="enable-background:new 0 0 841.89 368.5;" xml:space="preserve">
<style type="text/css">
	.st0{fill:#46505A;}
	.st1{fill:#F98422;}
	.st2{display:none;}
	.st3{display:inline;}
	.st4{fill:#FFFFFF;}
	.st5{display:inline;fill:#FFFFFF;}
	.st6{display:inline;fill:#F98422;}
	.st7{display:inline;fill:#46505A;}
</style>
<g id="_x32_c_pos">
	<g>
		<path class="st0" d="M332.95,168.01l15.4-34.23h9.06v59.49h-8.98v-40.04h-0.35l-11.97,25.61h-7.22l-11.97-25.61h-0.35v40.04h-8.98
			v-59.49h9.06l15.4,34.23H332.95z"/>
		<path class="st0" d="M418.57,176.9h-24.29l-5.63,16.37h-9.33l20.5-59.49h13.2l20.5,59.49h-9.33L418.57,176.9z M397.1,168.36h18.66
			l-8.89-26.22h-0.88L397.1,168.36z"/>
		<path class="st0" d="M490.12,193.26l-12.67-24.99h-13.02v24.99h-8.97v-59.49h26.75c7.3,0,12.67,5.9,12.67,13.2v8.1
			c0,5.72-3.26,10.56-8.18,12.41l13.2,25.78H490.12z M485.89,149.09c0-4.93-2.11-7.3-7.66-7.3h-13.82v18.48h13.82
			c5.54,0,7.66-2.38,7.66-7.3V149.09z"/>
		<path class="st0" d="M523.2,193.26v-59.49h8.98v59.49H523.2z"/>
		<path class="st0" d="M581.99,194.23c-11.53,0-22.35-3.43-22.35-18.57v-24.29c0-15.14,11-18.57,22.53-18.57
			c4.75,0,10.47,0.62,14.78,0.97v8.45c0,0-8.45-1.06-14.34-1.06c-10.91,0-13.99,3.17-13.99,13.2v17.25
			c0,10.03,3.08,14.26,13.99,14.26c3.17,0,7.13-0.35,10.12-0.62v-17.6h-11.88v-7.92h20.86v33.18
			C590.96,193.79,586.04,194.23,581.99,194.23z"/>
		<path class="st0" d="M671.65,151.38v24.29c0,13.9-10.03,18.57-21.56,18.57s-21.56-4.66-21.56-18.57v-24.29
			c0-13.9,10.12-18.57,21.56-18.57S671.65,137.47,671.65,151.38z M637.51,153.58v19.8c0,9.94,5.19,12.58,12.58,12.58
			c7.39,0,12.58-2.64,12.58-12.58v-19.8c0-9.86-5.19-12.5-12.58-12.5C642.7,141.08,637.51,143.72,637.51,153.58z"/>
		<path class="st0" d="M697.02,193.26v-59.49H706v51.39h25.87v8.1H697.02z"/>
		<path class="st0" d="M794.42,180.06c0,7.3-5.63,13.2-13.11,13.2h-28.16v-59.49h28.07c7.66,0,13.2,5.9,13.2,13.2V180.06z
			 M785.44,149.88c0-5.9-2.99-8.1-8.54-8.1h-14.79v43.38h14.79c5.54,0,8.54-2.02,8.54-8.1V149.88z"/>
	</g>
	<g>
		<path class="st0" d="M326.93,223.65c0,3.31-2.12,5.84-5.15,6.49l7.36,14.4h-2.48l-7.31-14.26h-9.52v14.26h-2.21v-31.1h12.7
			c3.82,0,6.62,3.08,6.62,6.9V223.65z M324.72,220.24c0-2.9-1.89-4.69-4.78-4.69h-10.12v12.65h10.12c2.9,0,4.78-1.79,4.78-4.69
			V220.24z"/>
		<path class="st0" d="M345.36,230.91l-9.2,13.62h-2.85l10.58-15.46v-0.05l-10.63-15.6h2.85l9.25,13.66l9.2-13.66h2.85l-10.63,15.6
			v0.05l10.58,15.46h-2.85L345.36,230.91z"/>
		<path class="st0" d="M399.61,237.63c0,3.82-2.81,6.9-6.62,6.9h-13.66v-31.1h13.66c3.82,0,6.62,3.08,6.62,6.9V237.63z
			 M397.41,220.47c0-2.9-2.16-4.92-5.06-4.92h-10.81v26.82h10.86c2.9,0,5.01-1.98,5.01-4.88V220.47z"/>
		<path class="st0" d="M425.24,229.9v4.83h-14.72v2.62c0,4.32,4.05,5.52,7.59,5.52c1.75,0,4.6-0.14,6.39-0.46v2.12
			c-2.02,0.32-4.19,0.51-6.72,0.51c-4.97,0-9.48-1.79-9.48-8.28v-6.86c0-4.51,1.93-7.68,8.51-7.68
			C423.4,222.22,425.24,225.39,425.24,229.9z M423.04,232.52v-3.68c0-2.53-1.98-4.55-6.21-4.55c-3.73,0-6.3,1.56-6.3,4.65v3.59
			H423.04z"/>
		<path class="st0" d="M447.28,239.33c0,3.5-2.39,5.7-7.45,5.7c-4.74,0-7.41-0.51-7.41-0.51v-2.25c0,0,3.82,0.55,6.44,0.55
			c4.09,0,6.21-0.92,6.21-3.54v-1.06c0-1.43-0.46-2.76-2.94-3.13l-4.69-0.64c-3.17-0.41-5.11-2.07-5.11-4.92v-1.43
			c0-3.5,2.02-5.89,7.91-5.89c2.76,0,4.14,0.28,5.8,0.46v2.16c0,0-2.9-0.41-5.61-0.41c-4.14,0-5.89,1.2-5.89,3.68v1.01
			c0,1.43,0.46,2.81,2.94,3.13l4.69,0.64c3.27,0.41,5.11,2.12,5.11,4.92V239.33z"/>
		<path class="st0" d="M455.45,216.93v-5.06h2.21v5.06H455.45z M455.45,244.53v-21.81h2.21v21.81H455.45z"/>
		<path class="st0" d="M470.13,237.08c-2.35-0.87-4.37-2.76-4.37-6.62v-0.55c0-4.51,1.61-7.68,8.46-7.68c1.61,0,2.94,0.18,4.05,0.51
			h7.87v2.48h-0.46l-4.92-0.55c1.38,1.29,1.93,3.68,1.93,5.24v0.55c0,5.79-4.37,7.13-8.56,7.13c-0.78,0-1.24-0.04-1.98-0.14
			l-0.87,1.15c-0.37,0.51-0.46,0.87-0.46,1.2c0,1.24,1.38,1.89,2.76,2.07l5.93,0.74c3.87,0.46,5.71,2.3,5.71,4.92v0.64
			c0,4.51-4.92,6.72-10.4,6.72c-5.24,0-9.43-2.02-9.43-6.53v-0.37c0-2.03,0.92-4.23,4.69-5.52c-0.69-0.32-1.56-1.2-1.56-2.12v-0.74
			c0-0.28,0-0.55,0.14-0.69L470.13,237.08z M483.06,247.75c0-1.75-1.15-2.99-3.96-3.31l-6.85-0.83c-3.4,0.41-4.69,2.39-4.69,4.14
			v0.88c0,2.9,3.63,4.23,7.36,4.23c3.87,0,8.14-1.43,8.14-4.32V247.75z M467.92,229.12v1.66c0,3.08,1.79,4.79,6.26,4.79
			c4.46,0,6.35-1.7,6.35-4.79v-1.66c0-3.08-1.89-4.78-6.35-4.78C469.72,224.34,467.92,226.04,467.92,229.12z"/>
		<path class="st0" d="M508.62,244.53V230c0-4-1.79-5.57-4.32-5.57c-0.6,0-1.7,0.04-2.71,0.74l-5.57,3.68v15.69h-2.21v-21.81h2.21
			v3.82l6.26-4.14c0.41-0.14,0.92-0.18,1.29-0.18c5.15,0,7.27,2.85,7.27,6.9v15.41H508.62z"/>
		<path class="st0" d="M551.09,237.13c0,5.24-3.08,7.91-9.84,7.91c-4.42,0-8.92-0.46-8.92-0.46v-2.35c0,0,5.57,0.51,9.38,0.51
			c4.42,0,7.18-1.56,7.18-5.57v-2.02c0-2.76-1.47-4.32-4.74-4.74l-5.34-0.64c-3.68-0.46-6.62-2.71-6.62-6.62v-2.16
			c0-5.38,3.17-8.05,9.57-8.05c2.99,0,6.03,0.28,7.82,0.51v2.3c0,0-3.77-0.51-8.33-0.51c-3.96,0-6.85,1.56-6.85,5.52v2.03
			c0,2.85,1.52,4.42,4.74,4.79l5.29,0.64c3.73,0.46,6.67,2.71,6.67,6.62V237.13z"/>
		<path class="st0" d="M560.1,254.29l3.27-9.75h-1.01l-7.73-21.81h2.35l6.9,19.6h0.46l6.9-19.6h2.35l-11.27,31.56H560.1z"/>
		<path class="st0" d="M593.29,239.33c0,3.5-2.39,5.7-7.45,5.7c-4.74,0-7.41-0.51-7.41-0.51v-2.25c0,0,3.82,0.55,6.44,0.55
			c4.09,0,6.21-0.92,6.21-3.54v-1.06c0-1.43-0.46-2.76-2.94-3.13l-4.69-0.64c-3.17-0.41-5.11-2.07-5.11-4.92v-1.43
			c0-3.5,2.02-5.89,7.91-5.89c2.76,0,4.14,0.28,5.8,0.46v2.16c0,0-2.9-0.41-5.61-0.41c-4.14,0-5.89,1.2-5.89,3.68v1.01
			c0,1.43,0.46,2.81,2.94,3.13l4.69,0.64c3.27,0.41,5.11,2.12,5.11,4.92V239.33z"/>
		<path class="st0" d="M611.2,244.62c-0.83,0.23-2.07,0.37-2.94,0.37c-3.27,0-5.66-1.2-5.66-5.94v-14.21h-4.19v-2.12h4.19v-5.38
			l1.29-0.87h0.92v6.26h6.81v2.12h-6.81v13.76c0,3.04,0.97,4.14,3.59,4.14c0.51,0,2.21-0.14,2.81-0.23V244.62z"/>
		<path class="st0" d="M634.62,229.9v4.83H619.9v2.62c0,4.32,4.05,5.52,7.59,5.52c1.75,0,4.6-0.14,6.39-0.46v2.12
			c-2.02,0.32-4.19,0.51-6.72,0.51c-4.97,0-9.48-1.79-9.48-8.28v-6.86c0-4.51,1.93-7.68,8.51-7.68
			C632.78,222.22,634.62,225.39,634.62,229.9z M632.42,232.52v-3.68c0-2.53-1.98-4.55-6.21-4.55c-3.73,0-6.3,1.56-6.3,4.65v3.59
			H632.42z"/>
		<path class="st0" d="M669.44,244.53V230c0-4-1.01-5.57-3.54-5.57c-0.6,0-1.7,0.04-2.71,0.74l-5.57,3.68v15.69h-2.21V230
			c0-4-1.01-5.57-3.54-5.57c-0.6,0-1.7,0.04-2.71,0.74l-5.57,3.68v15.69h-2.21v-21.81h2.21v3.82l6.26-4.14
			c0.41-0.14,0.92-0.18,1.29-0.18c4.05-0.04,5.71,1.75,6.3,4.46l6.44-4.28c0.41-0.14,0.92-0.18,1.29-0.18c5.15,0,6.49,2.85,6.49,6.9
			v15.41H669.44z"/>
	</g>
	<path class="st0" d="M239.04,74.62c-5.36,0.69-11.25,3.29-17.23,9.26c-18.95,18.95-19.02,58.45-19.02,58.45s39.5-0.07,58.45-19.02
		c5.97-5.97,8.58-11.86,9.27-17.21c-4-6.15-8.69-11.99-14.09-17.39C251.03,83.31,245.19,78.62,239.04,74.62z"/>
	<path class="st1" d="M138.3,79.78c-3.3,4.28-5.63,10.28-5.63,18.73c0,26.8,27.88,54.78,27.88,54.78s27.88-27.98,27.88-54.78
		c0-8.45-2.32-14.45-5.62-18.73c-7.18-1.52-14.63-2.33-22.26-2.33C152.92,77.45,145.48,78.25,138.3,79.78z"/>
	<path class="st1" d="M182.8,288.62c3.3-4.28,5.63-10.28,5.63-18.73c0-26.8-27.88-54.78-27.88-54.78s-27.88,27.98-27.88,54.78
		c0,8.45,2.32,14.45,5.62,18.73c7.18,1.52,14.63,2.33,22.26,2.33C168.18,290.95,175.62,290.14,182.8,288.62z"/>
	<path class="st1" d="M264.97,161.95c-4.28-3.3-10.28-5.63-18.73-5.63c-26.8,0-54.78,27.88-54.78,27.88s27.98,27.88,54.78,27.88
		c8.45,0,14.45-2.32,18.73-5.62c1.52-7.18,2.33-14.63,2.33-22.26C267.3,176.57,266.49,169.13,264.97,161.95z"/>
	<path class="st1" d="M56.12,206.45c4.28,3.3,10.28,5.63,18.73,5.63c26.8,0,54.78-27.88,54.78-27.88s-27.98-27.88-54.78-27.88
		c-8.45,0-14.45,2.32-18.73,5.62c-1.52,7.18-2.33,14.63-2.33,22.26C53.8,191.83,54.6,199.27,56.12,206.45z"/>
	<path class="st1" d="M250.12,242.31c-0.69-5.36-3.29-11.25-9.26-17.23c-18.95-18.95-58.45-19.02-58.45-19.02s0.07,39.5,19.02,58.45
		c5.97,5.97,11.86,8.58,17.21,9.27c6.15-4,11.99-8.69,17.39-14.09C241.43,254.29,246.12,248.46,250.12,242.31z"/>
	<path class="st1" d="M70.98,126.09c0.69,5.36,3.29,11.25,9.26,17.23c18.95,18.95,58.45,19.02,58.45,19.02s-0.07-39.5-19.02-58.45
		c-5.97-5.97-11.86-8.58-17.21-9.27c-6.15,4-11.99,8.69-17.39,14.09C79.67,114.11,74.98,119.94,70.98,126.09z"/>
	<path class="st1" d="M102.44,273.77c5.36-0.69,11.25-3.29,17.23-9.26c18.95-18.95,19.02-58.45,19.02-58.45s-39.5,0.07-58.45,19.02
		c-5.97,5.97-8.58,11.86-9.27,17.21c4,6.15,8.69,11.99,14.09,17.39C90.46,265.08,96.29,269.77,102.44,273.77z"/>
</g>
<g id="_x32_c_neg" class="st2">
	<g class="st3">
		<path class="st4" d="M332.95,168.01l15.4-34.23h9.06v59.49h-8.98v-40.04h-0.35l-11.97,25.61h-7.22l-11.97-25.61h-0.35v40.04h-8.98
			v-59.49h9.06l15.4,34.23H332.95z"/>
		<path class="st4" d="M418.57,176.9h-24.29l-5.63,16.37h-9.33l20.5-59.49h13.2l20.5,59.49h-9.33L418.57,176.9z M397.1,168.36h18.66
			l-8.89-26.22h-0.88L397.1,168.36z"/>
		<path class="st4" d="M490.12,193.26l-12.67-24.99h-13.02v24.99h-8.97v-59.49h26.75c7.3,0,12.67,5.9,12.67,13.2v8.1
			c0,5.72-3.26,10.56-8.18,12.41l13.2,25.78H490.12z M485.89,149.09c0-4.93-2.11-7.3-7.66-7.3h-13.82v18.48h13.82
			c5.54,0,7.66-2.38,7.66-7.3V149.09z"/>
		<path class="st4" d="M523.2,193.26v-59.49h8.98v59.49H523.2z"/>
		<path class="st4" d="M581.99,194.23c-11.53,0-22.35-3.43-22.35-18.57v-24.29c0-15.14,11-18.57,22.53-18.57
			c4.75,0,10.47,0.62,14.78,0.97v8.45c0,0-8.45-1.06-14.34-1.06c-10.91,0-13.99,3.17-13.99,13.2v17.25
			c0,10.03,3.08,14.26,13.99,14.26c3.17,0,7.13-0.35,10.12-0.62v-17.6h-11.88v-7.92h20.86v33.18
			C590.96,193.79,586.04,194.23,581.99,194.23z"/>
		<path class="st4" d="M671.65,151.38v24.29c0,13.9-10.03,18.57-21.56,18.57s-21.56-4.66-21.56-18.57v-24.29
			c0-13.9,10.12-18.57,21.56-18.57S671.65,137.47,671.65,151.38z M637.51,153.58v19.8c0,9.94,5.19,12.58,12.58,12.58
			c7.39,0,12.58-2.64,12.58-12.58v-19.8c0-9.86-5.19-12.5-12.58-12.5C642.7,141.08,637.51,143.72,637.51,153.58z"/>
		<path class="st4" d="M697.02,193.26v-59.49H706v51.39h25.87v8.1H697.02z"/>
		<path class="st4" d="M794.42,180.06c0,7.3-5.63,13.2-13.11,13.2h-28.16v-59.49h28.07c7.66,0,13.2,5.9,13.2,13.2V180.06z
			 M785.44,149.88c0-5.9-2.99-8.1-8.54-8.1h-14.79v43.38h14.79c5.54,0,8.54-2.02,8.54-8.1V149.88z"/>
	</g>
	<g class="st3">
		<path class="st4" d="M326.93,223.65c0,3.31-2.12,5.84-5.15,6.49l7.36,14.4h-2.48l-7.31-14.26h-9.52v14.26h-2.21v-31.1h12.7
			c3.82,0,6.62,3.08,6.62,6.9V223.65z M324.72,220.24c0-2.9-1.89-4.69-4.78-4.69h-10.12v12.65h10.12c2.9,0,4.78-1.79,4.78-4.69
			V220.24z"/>
		<path class="st4" d="M345.36,230.91l-9.2,13.62h-2.85l10.58-15.46v-0.05l-10.63-15.6h2.85l9.25,13.66l9.2-13.66h2.85l-10.63,15.6
			v0.05l10.58,15.46h-2.85L345.36,230.91z"/>
		<path class="st4" d="M399.61,237.63c0,3.82-2.81,6.9-6.62,6.9h-13.66v-31.1h13.66c3.82,0,6.62,3.08,6.62,6.9V237.63z
			 M397.41,220.47c0-2.9-2.16-4.92-5.06-4.92h-10.81v26.82h10.86c2.9,0,5.01-1.98,5.01-4.88V220.47z"/>
		<path class="st4" d="M425.24,229.9v4.83h-14.72v2.62c0,4.32,4.05,5.52,7.59,5.52c1.75,0,4.6-0.14,6.39-0.46v2.12
			c-2.02,0.32-4.19,0.51-6.72,0.51c-4.97,0-9.48-1.79-9.48-8.28v-6.86c0-4.51,1.93-7.68,8.51-7.68
			C423.4,222.22,425.24,225.39,425.24,229.9z M423.04,232.52v-3.68c0-2.53-1.98-4.55-6.21-4.55c-3.73,0-6.3,1.56-6.3,4.65v3.59
			H423.04z"/>
		<path class="st4" d="M447.28,239.33c0,3.5-2.39,5.7-7.45,5.7c-4.74,0-7.41-0.51-7.41-0.51v-2.25c0,0,3.82,0.55,6.44,0.55
			c4.09,0,6.21-0.92,6.21-3.54v-1.06c0-1.43-0.46-2.76-2.94-3.13l-4.69-0.64c-3.17-0.41-5.11-2.07-5.11-4.92v-1.43
			c0-3.5,2.02-5.89,7.91-5.89c2.76,0,4.14,0.28,5.8,0.46v2.16c0,0-2.9-0.41-5.61-0.41c-4.14,0-5.89,1.2-5.89,3.68v1.01
			c0,1.43,0.46,2.81,2.94,3.13l4.69,0.64c3.27,0.41,5.11,2.12,5.11,4.92V239.33z"/>
		<path class="st4" d="M455.45,216.93v-5.06h2.21v5.06H455.45z M455.45,244.53v-21.81h2.21v21.81H455.45z"/>
		<path class="st4" d="M470.13,237.08c-2.35-0.87-4.37-2.76-4.37-6.62v-0.55c0-4.51,1.61-7.68,8.46-7.68c1.61,0,2.94,0.18,4.05,0.51
			h7.87v2.48h-0.46l-4.92-0.55c1.38,1.29,1.93,3.68,1.93,5.24v0.55c0,5.79-4.37,7.13-8.56,7.13c-0.78,0-1.24-0.04-1.98-0.14
			l-0.87,1.15c-0.37,0.51-0.46,0.87-0.46,1.2c0,1.24,1.38,1.89,2.76,2.07l5.93,0.74c3.87,0.46,5.71,2.3,5.71,4.92v0.64
			c0,4.51-4.92,6.72-10.4,6.72c-5.24,0-9.43-2.02-9.43-6.53v-0.37c0-2.03,0.92-4.23,4.69-5.52c-0.69-0.32-1.56-1.2-1.56-2.12v-0.74
			c0-0.28,0-0.55,0.14-0.69L470.13,237.08z M483.06,247.75c0-1.75-1.15-2.99-3.96-3.31l-6.85-0.83c-3.4,0.41-4.69,2.39-4.69,4.14
			v0.88c0,2.9,3.63,4.23,7.36,4.23c3.87,0,8.14-1.43,8.14-4.32V247.75z M467.92,229.12v1.66c0,3.08,1.79,4.79,6.26,4.79
			c4.46,0,6.35-1.7,6.35-4.79v-1.66c0-3.08-1.89-4.78-6.35-4.78C469.72,224.34,467.92,226.04,467.92,229.12z"/>
		<path class="st4" d="M508.62,244.53V230c0-4-1.79-5.57-4.32-5.57c-0.6,0-1.7,0.04-2.71,0.74l-5.57,3.68v15.69h-2.21v-21.81h2.21
			v3.82l6.26-4.14c0.41-0.14,0.92-0.18,1.29-0.18c5.15,0,7.27,2.85,7.27,6.9v15.41H508.62z"/>
		<path class="st4" d="M551.09,237.13c0,5.24-3.08,7.91-9.84,7.91c-4.42,0-8.92-0.46-8.92-0.46v-2.35c0,0,5.57,0.51,9.38,0.51
			c4.42,0,7.18-1.56,7.18-5.57v-2.02c0-2.76-1.47-4.32-4.74-4.74l-5.34-0.64c-3.68-0.46-6.62-2.71-6.62-6.62v-2.16
			c0-5.38,3.17-8.05,9.57-8.05c2.99,0,6.03,0.28,7.82,0.51v2.3c0,0-3.77-0.51-8.33-0.51c-3.96,0-6.85,1.56-6.85,5.52v2.03
			c0,2.85,1.52,4.42,4.74,4.79l5.29,0.64c3.73,0.46,6.67,2.71,6.67,6.62V237.13z"/>
		<path class="st4" d="M560.1,254.29l3.27-9.75h-1.01l-7.73-21.81h2.35l6.9,19.6h0.46l6.9-19.6h2.35l-11.27,31.56H560.1z"/>
		<path class="st4" d="M593.29,239.33c0,3.5-2.39,5.7-7.45,5.7c-4.74,0-7.41-0.51-7.41-0.51v-2.25c0,0,3.82,0.55,6.44,0.55
			c4.09,0,6.21-0.92,6.21-3.54v-1.06c0-1.43-0.46-2.76-2.94-3.13l-4.69-0.64c-3.17-0.41-5.11-2.07-5.11-4.92v-1.43
			c0-3.5,2.02-5.89,7.91-5.89c2.76,0,4.14,0.28,5.8,0.46v2.16c0,0-2.9-0.41-5.61-0.41c-4.14,0-5.89,1.2-5.89,3.68v1.01
			c0,1.43,0.46,2.81,2.94,3.13l4.69,0.64c3.27,0.41,5.11,2.12,5.11,4.92V239.33z"/>
		<path class="st4" d="M611.2,244.62c-0.83,0.23-2.07,0.37-2.94,0.37c-3.27,0-5.66-1.2-5.66-5.94v-14.21h-4.19v-2.12h4.19v-5.38
			l1.29-0.87h0.92v6.26h6.81v2.12h-6.81v13.76c0,3.04,0.97,4.14,3.59,4.14c0.51,0,2.21-0.14,2.81-0.23V244.62z"/>
		<path class="st4" d="M634.62,229.9v4.83H619.9v2.62c0,4.32,4.05,5.52,7.59,5.52c1.75,0,4.6-0.14,6.39-0.46v2.12
			c-2.02,0.32-4.19,0.51-6.72,0.51c-4.97,0-9.48-1.79-9.48-8.28v-6.86c0-4.51,1.93-7.68,8.51-7.68
			C632.78,222.22,634.62,225.39,634.62,229.9z M632.42,232.52v-3.68c0-2.53-1.98-4.55-6.21-4.55c-3.73,0-6.3,1.56-6.3,4.65v3.59
			H632.42z"/>
		<path class="st4" d="M669.44,244.53V230c0-4-1.01-5.57-3.54-5.57c-0.6,0-1.7,0.04-2.71,0.74l-5.57,3.68v15.69h-2.21V230
			c0-4-1.01-5.57-3.54-5.57c-0.6,0-1.7,0.04-2.71,0.74l-5.57,3.68v15.69h-2.21v-21.81h2.21v3.82l6.26-4.14
			c0.41-0.14,0.92-0.18,1.29-0.18c4.05-0.04,5.71,1.75,6.3,4.46l6.44-4.28c0.41-0.14,0.92-0.18,1.29-0.18c5.15,0,6.49,2.85,6.49,6.9
			v15.41H669.44z"/>
	</g>
	<path class="st5" d="M239.04,74.62c-5.36,0.69-11.25,3.29-17.23,9.26c-18.95,18.95-19.02,58.45-19.02,58.45s39.5-0.07,58.45-19.02
		c5.97-5.97,8.58-11.86,9.27-17.21c-4-6.15-8.69-11.99-14.09-17.39C251.03,83.31,245.19,78.62,239.04,74.62z"/>
	<path class="st6" d="M138.3,79.78c-3.3,4.28-5.63,10.28-5.63,18.73c0,26.8,27.88,54.78,27.88,54.78s27.88-27.98,27.88-54.78
		c0-8.45-2.32-14.45-5.62-18.73c-7.18-1.52-14.63-2.33-22.26-2.33C152.92,77.45,145.48,78.25,138.3,79.78z"/>
	<path class="st6" d="M182.8,288.62c3.3-4.28,5.63-10.28,5.63-18.73c0-26.8-27.88-54.78-27.88-54.78s-27.88,27.98-27.88,54.78
		c0,8.45,2.32,14.45,5.62,18.73c7.18,1.52,14.63,2.33,22.26,2.33C168.18,290.95,175.62,290.14,182.8,288.62z"/>
	<path class="st6" d="M264.97,161.95c-4.28-3.3-10.28-5.63-18.73-5.63c-26.8,0-54.78,27.88-54.78,27.88s27.98,27.88,54.78,27.88
		c8.45,0,14.45-2.32,18.73-5.62c1.52-7.18,2.33-14.63,2.33-22.26C267.3,176.57,266.49,169.13,264.97,161.95z"/>
	<path class="st6" d="M56.12,206.45c4.28,3.3,10.28,5.63,18.73,5.63c26.8,0,54.78-27.88,54.78-27.88s-27.98-27.88-54.78-27.88
		c-8.45,0-14.45,2.32-18.73,5.62c-1.52,7.18-2.33,14.63-2.33,22.26C53.8,191.83,54.6,199.27,56.12,206.45z"/>
	<path class="st6" d="M250.12,242.31c-0.69-5.36-3.29-11.25-9.26-17.23c-18.95-18.95-58.45-19.02-58.45-19.02s0.07,39.5,19.02,58.45
		c5.97,5.97,11.86,8.58,17.21,9.27c6.15-4,11.99-8.69,17.39-14.09C241.43,254.29,246.12,248.46,250.12,242.31z"/>
	<path class="st6" d="M70.98,126.09c0.69,5.36,3.29,11.25,9.26,17.23c18.95,18.95,58.45,19.02,58.45,19.02s-0.07-39.5-19.02-58.45
		c-5.97-5.97-11.86-8.58-17.21-9.27c-6.15,4-11.99,8.69-17.39,14.09C79.67,114.11,74.98,119.94,70.98,126.09z"/>
	<path class="st6" d="M102.44,273.77c5.36-0.69,11.25-3.29,17.23-9.26c18.95-18.95,19.02-58.45,19.02-58.45s-39.5,0.07-58.45,19.02
		c-5.97,5.97-8.58,11.86-9.27,17.21c4,6.15,8.69,11.99,14.09,17.39C90.46,265.08,96.29,269.77,102.44,273.77z"/>
</g>
<g id="_x31_c_neg" class="st2">
	<g class="st3">
		<path class="st4" d="M332.95,168.01l15.4-34.23h9.06v59.49h-8.98v-40.04h-0.35l-11.97,25.61h-7.22l-11.97-25.61h-0.35v40.04h-8.98
			v-59.49h9.06l15.4,34.23H332.95z"/>
		<path class="st4" d="M418.57,176.9h-24.29l-5.63,16.37h-9.33l20.5-59.49h13.2l20.5,59.49h-9.33L418.57,176.9z M397.1,168.36h18.66
			l-8.89-26.22h-0.88L397.1,168.36z"/>
		<path class="st4" d="M490.12,193.26l-12.67-24.99h-13.02v24.99h-8.97v-59.49h26.75c7.3,0,12.67,5.9,12.67,13.2v8.1
			c0,5.72-3.26,10.56-8.18,12.41l13.2,25.78H490.12z M485.89,149.09c0-4.93-2.11-7.3-7.66-7.3h-13.82v18.48h13.82
			c5.54,0,7.66-2.38,7.66-7.3V149.09z"/>
		<path class="st4" d="M523.2,193.26v-59.49h8.98v59.49H523.2z"/>
		<path class="st4" d="M581.99,194.23c-11.53,0-22.35-3.43-22.35-18.57v-24.29c0-15.14,11-18.57,22.53-18.57
			c4.75,0,10.47,0.62,14.78,0.97v8.45c0,0-8.45-1.06-14.34-1.06c-10.91,0-13.99,3.17-13.99,13.2v17.25
			c0,10.03,3.08,14.26,13.99,14.26c3.17,0,7.13-0.35,10.12-0.62v-17.6h-11.88v-7.92h20.86v33.18
			C590.96,193.79,586.04,194.23,581.99,194.23z"/>
		<path class="st4" d="M671.65,151.38v24.29c0,13.9-10.03,18.57-21.56,18.57s-21.56-4.66-21.56-18.57v-24.29
			c0-13.9,10.12-18.57,21.56-18.57S671.65,137.47,671.65,151.38z M637.51,153.58v19.8c0,9.94,5.19,12.58,12.58,12.58
			c7.39,0,12.58-2.64,12.58-12.58v-19.8c0-9.86-5.19-12.5-12.58-12.5C642.7,141.08,637.51,143.72,637.51,153.58z"/>
		<path class="st4" d="M697.02,193.26v-59.49H706v51.39h25.87v8.1H697.02z"/>
		<path class="st4" d="M794.42,180.06c0,7.3-5.63,13.2-13.11,13.2h-28.16v-59.49h28.07c7.66,0,13.2,5.9,13.2,13.2V180.06z
			 M785.44,149.88c0-5.9-2.99-8.1-8.54-8.1h-14.79v43.38h14.79c5.54,0,8.54-2.02,8.54-8.1V149.88z"/>
	</g>
	<g class="st3">
		<path class="st4" d="M326.93,223.65c0,3.31-2.12,5.84-5.15,6.49l7.36,14.4h-2.48l-7.31-14.26h-9.52v14.26h-2.21v-31.1h12.7
			c3.82,0,6.62,3.08,6.62,6.9V223.65z M324.72,220.24c0-2.9-1.89-4.69-4.78-4.69h-10.12v12.65h10.12c2.9,0,4.78-1.79,4.78-4.69
			V220.24z"/>
		<path class="st4" d="M345.36,230.91l-9.2,13.62h-2.85l10.58-15.46v-0.05l-10.63-15.6h2.85l9.25,13.66l9.2-13.66h2.85l-10.63,15.6
			v0.05l10.58,15.46h-2.85L345.36,230.91z"/>
		<path class="st4" d="M399.61,237.63c0,3.82-2.81,6.9-6.62,6.9h-13.66v-31.1h13.66c3.82,0,6.62,3.08,6.62,6.9V237.63z
			 M397.41,220.47c0-2.9-2.16-4.92-5.06-4.92h-10.81v26.82h10.86c2.9,0,5.01-1.98,5.01-4.88V220.47z"/>
		<path class="st4" d="M425.24,229.9v4.83h-14.72v2.62c0,4.32,4.05,5.52,7.59,5.52c1.75,0,4.6-0.14,6.39-0.46v2.12
			c-2.02,0.32-4.19,0.51-6.72,0.51c-4.97,0-9.48-1.79-9.48-8.28v-6.86c0-4.51,1.93-7.68,8.51-7.68
			C423.4,222.22,425.24,225.39,425.24,229.9z M423.04,232.52v-3.68c0-2.53-1.98-4.55-6.21-4.55c-3.73,0-6.3,1.56-6.3,4.65v3.59
			H423.04z"/>
		<path class="st4" d="M447.28,239.33c0,3.5-2.39,5.7-7.45,5.7c-4.74,0-7.41-0.51-7.41-0.51v-2.25c0,0,3.82,0.55,6.44,0.55
			c4.09,0,6.21-0.92,6.21-3.54v-1.06c0-1.43-0.46-2.76-2.94-3.13l-4.69-0.64c-3.17-0.41-5.11-2.07-5.11-4.92v-1.43
			c0-3.5,2.02-5.89,7.91-5.89c2.76,0,4.14,0.28,5.8,0.46v2.16c0,0-2.9-0.41-5.61-0.41c-4.14,0-5.89,1.2-5.89,3.68v1.01
			c0,1.43,0.46,2.81,2.94,3.13l4.69,0.64c3.27,0.41,5.11,2.12,5.11,4.92V239.33z"/>
		<path class="st4" d="M455.45,216.93v-5.06h2.21v5.06H455.45z M455.45,244.53v-21.81h2.21v21.81H455.45z"/>
		<path class="st4" d="M470.13,237.08c-2.35-0.87-4.37-2.76-4.37-6.62v-0.55c0-4.51,1.61-7.68,8.46-7.68c1.61,0,2.94,0.18,4.05,0.51
			h7.87v2.48h-0.46l-4.92-0.55c1.38,1.29,1.93,3.68,1.93,5.24v0.55c0,5.79-4.37,7.13-8.56,7.13c-0.78,0-1.24-0.04-1.98-0.14
			l-0.87,1.15c-0.37,0.51-0.46,0.87-0.46,1.2c0,1.24,1.38,1.89,2.76,2.07l5.93,0.74c3.87,0.46,5.71,2.3,5.71,4.92v0.64
			c0,4.51-4.92,6.72-10.4,6.72c-5.24,0-9.43-2.02-9.43-6.53v-0.37c0-2.03,0.92-4.23,4.69-5.52c-0.69-0.32-1.56-1.2-1.56-2.12v-0.74
			c0-0.28,0-0.55,0.14-0.69L470.13,237.08z M483.06,247.75c0-1.75-1.15-2.99-3.96-3.31l-6.85-0.83c-3.4,0.41-4.69,2.39-4.69,4.14
			v0.88c0,2.9,3.63,4.23,7.36,4.23c3.87,0,8.14-1.43,8.14-4.32V247.75z M467.92,229.12v1.66c0,3.08,1.79,4.79,6.26,4.79
			c4.46,0,6.35-1.7,6.35-4.79v-1.66c0-3.08-1.89-4.78-6.35-4.78C469.72,224.34,467.92,226.04,467.92,229.12z"/>
		<path class="st4" d="M508.62,244.53V230c0-4-1.79-5.57-4.32-5.57c-0.6,0-1.7,0.04-2.71,0.74l-5.57,3.68v15.69h-2.21v-21.81h2.21
			v3.82l6.26-4.14c0.41-0.14,0.92-0.18,1.29-0.18c5.15,0,7.27,2.85,7.27,6.9v15.41H508.62z"/>
		<path class="st4" d="M551.09,237.13c0,5.24-3.08,7.91-9.84,7.91c-4.42,0-8.92-0.46-8.92-0.46v-2.35c0,0,5.57,0.51,9.38,0.51
			c4.42,0,7.18-1.56,7.18-5.57v-2.02c0-2.76-1.47-4.32-4.74-4.74l-5.34-0.64c-3.68-0.46-6.62-2.71-6.62-6.62v-2.16
			c0-5.38,3.17-8.05,9.57-8.05c2.99,0,6.03,0.28,7.82,0.51v2.3c0,0-3.77-0.51-8.33-0.51c-3.96,0-6.85,1.56-6.85,5.52v2.03
			c0,2.85,1.52,4.42,4.74,4.79l5.29,0.64c3.73,0.46,6.67,2.71,6.67,6.62V237.13z"/>
		<path class="st4" d="M560.1,254.29l3.27-9.75h-1.01l-7.73-21.81h2.35l6.9,19.6h0.46l6.9-19.6h2.35l-11.27,31.56H560.1z"/>
		<path class="st4" d="M593.29,239.33c0,3.5-2.39,5.7-7.45,5.7c-4.74,0-7.41-0.51-7.41-0.51v-2.25c0,0,3.82,0.55,6.44,0.55
			c4.09,0,6.21-0.92,6.21-3.54v-1.06c0-1.43-0.46-2.76-2.94-3.13l-4.69-0.64c-3.17-0.41-5.11-2.07-5.11-4.92v-1.43
			c0-3.5,2.02-5.89,7.91-5.89c2.76,0,4.14,0.28,5.8,0.46v2.16c0,0-2.9-0.41-5.61-0.41c-4.14,0-5.89,1.2-5.89,3.68v1.01
			c0,1.43,0.46,2.81,2.94,3.13l4.69,0.64c3.27,0.41,5.11,2.12,5.11,4.92V239.33z"/>
		<path class="st4" d="M611.2,244.62c-0.83,0.23-2.07,0.37-2.94,0.37c-3.27,0-5.66-1.2-5.66-5.94v-14.21h-4.19v-2.12h4.19v-5.38
			l1.29-0.87h0.92v6.26h6.81v2.12h-6.81v13.76c0,3.04,0.97,4.14,3.59,4.14c0.51,0,2.21-0.14,2.81-0.23V244.62z"/>
		<path class="st4" d="M634.62,229.9v4.83H619.9v2.62c0,4.32,4.05,5.52,7.59,5.52c1.75,0,4.6-0.14,6.39-0.46v2.12
			c-2.02,0.32-4.19,0.51-6.72,0.51c-4.97,0-9.48-1.79-9.48-8.28v-6.86c0-4.51,1.93-7.68,8.51-7.68
			C632.78,222.22,634.62,225.39,634.62,229.9z M632.42,232.52v-3.68c0-2.53-1.98-4.55-6.21-4.55c-3.73,0-6.3,1.56-6.3,4.65v3.59
			H632.42z"/>
		<path class="st4" d="M669.44,244.53V230c0-4-1.01-5.57-3.54-5.57c-0.6,0-1.7,0.04-2.71,0.74l-5.57,3.68v15.69h-2.21V230
			c0-4-1.01-5.57-3.54-5.57c-0.6,0-1.7,0.04-2.71,0.74l-5.57,3.68v15.69h-2.21v-21.81h2.21v3.82l6.26-4.14
			c0.41-0.14,0.92-0.18,1.29-0.18c4.05-0.04,5.71,1.75,6.3,4.46l6.44-4.28c0.41-0.14,0.92-0.18,1.29-0.18c5.15,0,6.49,2.85,6.49,6.9
			v15.41H669.44z"/>
	</g>
	<path class="st5" d="M239.04,74.62c-5.36,0.69-11.25,3.29-17.23,9.26c-18.95,18.95-19.02,58.45-19.02,58.45s39.5-0.07,58.45-19.02
		c5.97-5.97,8.58-11.86,9.27-17.21c-4-6.15-8.69-11.99-14.09-17.39C251.03,83.31,245.19,78.62,239.04,74.62z"/>
	<g class="st3">
		<g>
			<path class="st4" d="M160.55,79.45c7.09,0,14.19,0.72,21.11,2.13c3.16,4.4,4.77,10.09,4.77,16.93
				c0,22.22-20.28,45.78-25.88,51.87c-5.6-6.09-25.88-29.65-25.88-51.87c0-6.83,1.61-12.52,4.78-16.93
				C146.37,80.16,153.46,79.45,160.55,79.45 M160.55,77.45c-7.63,0-15.07,0.81-22.25,2.33c-3.3,4.28-5.63,10.28-5.63,18.73
				c0,26.8,27.88,54.78,27.88,54.78s27.88-27.98,27.88-54.78c0-8.45-2.32-14.45-5.62-18.73C175.63,78.26,168.18,77.45,160.55,77.45
				L160.55,77.45z"/>
		</g>
		<g>
			<path class="st4" d="M160.55,218.02c5.6,6.09,25.88,29.65,25.88,51.87c0,6.83-1.61,12.52-4.78,16.93
				c-6.92,1.41-14.01,2.13-21.1,2.13c-7.09,0-14.19-0.72-21.11-2.13c-3.16-4.4-4.77-10.09-4.77-16.93
				C134.67,247.68,154.95,224.11,160.55,218.02 M160.55,215.11c0,0-27.88,27.98-27.88,54.78c0,8.45,2.32,14.45,5.62,18.73
				c7.18,1.52,14.63,2.33,22.26,2.33c7.63,0,15.07-0.81,22.25-2.33c3.3-4.28,5.63-10.28,5.63-18.73
				C188.43,243.09,160.55,215.11,160.55,215.11L160.55,215.11z"/>
		</g>
		<g>
			<path class="st4" d="M246.24,158.32c6.83,0,12.52,1.61,16.93,4.78c1.41,6.92,2.13,14.01,2.13,21.1c0,7.09-0.72,14.19-2.13,21.11
				c-4.4,3.16-10.09,4.77-16.93,4.77c-22.22,0-45.78-20.28-51.87-25.88C200.46,178.6,224.03,158.32,246.24,158.32 M246.24,156.32
				c-26.8,0-54.78,27.88-54.78,27.88s27.98,27.88,54.78,27.88c8.45,0,14.45-2.32,18.73-5.62c1.52-7.18,2.33-14.63,2.33-22.26
				c0-7.63-0.81-15.07-2.33-22.25C260.69,158.65,254.69,156.32,246.24,156.32L246.24,156.32z"/>
		</g>
		<g>
			<path class="st4" d="M74.86,158.32c22.22,0,45.78,20.28,51.87,25.88c-6.09,5.6-29.65,25.88-51.87,25.88
				c-6.83,0-12.52-1.61-16.93-4.78c-1.41-6.92-2.13-14.01-2.13-21.1c0-7.09,0.72-14.19,2.13-21.11
				C62.33,159.92,68.02,158.32,74.86,158.32 M74.86,156.32c-8.45,0-14.45,2.32-18.73,5.62c-1.52,7.18-2.33,14.63-2.33,22.26
				c0,7.63,0.81,15.07,2.33,22.25c4.28,3.3,10.28,5.63,18.73,5.63c26.8,0,54.78-27.88,54.78-27.88S101.65,156.32,74.86,156.32
				L74.86,156.32z"/>
		</g>
		<g>
			<path class="st4" d="M184.47,208.12c8.26,0.34,39.25,2.65,54.97,18.38c4.83,4.83,7.72,9.99,8.59,15.35
				c-3.89,5.89-8.4,11.42-13.41,16.43c-5.01,5.01-10.54,9.52-16.44,13.42c-5.35-0.88-10.51-3.77-15.34-8.6
				C187.13,247.38,184.81,216.38,184.47,208.12 M182.41,206.06c0,0,0.07,39.5,19.02,58.45c5.97,5.97,11.86,8.58,17.21,9.27
				c6.15-4,11.99-8.69,17.39-14.09c5.4-5.4,10.09-11.23,14.09-17.38c-0.69-5.36-3.29-11.25-9.26-17.23
				C221.91,206.13,182.41,206.06,182.41,206.06L182.41,206.06z"/>
		</g>
		<g>
			<path class="st4" d="M102.91,96.71c5.35,0.88,10.51,3.77,15.34,8.6c15.71,15.71,18.04,46.71,18.38,54.97
				c-8.26-0.34-39.25-2.65-54.97-18.38c-4.83-4.83-7.72-9.99-8.59-15.35c3.89-5.89,8.4-11.42,13.41-16.43
				C91.49,105.12,97.02,100.6,102.91,96.71 M102.45,94.62c-6.15,4-11.99,8.69-17.39,14.09c-5.4,5.4-10.09,11.23-14.09,17.38
				c0.69,5.36,3.29,11.25,9.26,17.23c18.95,18.95,58.45,19.02,58.45,19.02s-0.07-39.5-19.02-58.45
				C113.69,97.92,107.81,95.32,102.45,94.62L102.45,94.62z"/>
		</g>
		<g>
			<path class="st4" d="M136.63,208.12c-0.34,8.27-2.67,39.26-18.38,54.97c-4.83,4.83-9.99,7.72-15.35,8.59
				c-5.89-3.89-11.42-8.4-16.43-13.41c-5.01-5.01-9.52-10.54-13.42-16.44c0.88-5.35,3.77-10.51,8.6-15.34
				C97.37,210.79,128.37,208.46,136.63,208.12 M138.69,206.06c0,0-39.5,0.07-58.45,19.02c-5.97,5.97-8.58,11.86-9.27,17.21
				c4,6.15,8.69,11.99,14.09,17.39c5.4,5.4,11.23,10.09,17.38,14.09c5.36-0.69,11.25-3.29,17.23-9.26
				C138.62,245.56,138.69,206.06,138.69,206.06L138.69,206.06z"/>
		</g>
	</g>
</g>
<g id="_x31_c_pos" class="st2">
	<g class="st3">
		<path class="st0" d="M332.95,168.01l15.4-34.23h9.06v59.49h-8.98v-40.04h-0.35l-11.97,25.61h-7.22l-11.97-25.61h-0.35v40.04h-8.98
			v-59.49h9.06l15.4,34.23H332.95z"/>
		<path class="st0" d="M418.57,176.9h-24.29l-5.63,16.37h-9.33l20.5-59.49h13.2l20.5,59.49h-9.33L418.57,176.9z M397.1,168.36h18.66
			l-8.89-26.22h-0.88L397.1,168.36z"/>
		<path class="st0" d="M490.12,193.26l-12.67-24.99h-13.02v24.99h-8.97v-59.49h26.75c7.3,0,12.67,5.9,12.67,13.2v8.1
			c0,5.72-3.26,10.56-8.18,12.41l13.2,25.78H490.12z M485.89,149.09c0-4.93-2.11-7.3-7.66-7.3h-13.82v18.48h13.82
			c5.54,0,7.66-2.38,7.66-7.3V149.09z"/>
		<path class="st0" d="M523.2,193.26v-59.49h8.98v59.49H523.2z"/>
		<path class="st0" d="M581.99,194.23c-11.53,0-22.35-3.43-22.35-18.57v-24.29c0-15.14,11-18.57,22.53-18.57
			c4.75,0,10.47,0.62,14.78,0.97v8.45c0,0-8.45-1.06-14.34-1.06c-10.91,0-13.99,3.17-13.99,13.2v17.25
			c0,10.03,3.08,14.26,13.99,14.26c3.17,0,7.13-0.35,10.12-0.62v-17.6h-11.88v-7.92h20.86v33.18
			C590.96,193.79,586.04,194.23,581.99,194.23z"/>
		<path class="st0" d="M671.65,151.38v24.29c0,13.9-10.03,18.57-21.56,18.57s-21.56-4.66-21.56-18.57v-24.29
			c0-13.9,10.12-18.57,21.56-18.57S671.65,137.47,671.65,151.38z M637.51,153.58v19.8c0,9.94,5.19,12.58,12.58,12.58
			c7.39,0,12.58-2.64,12.58-12.58v-19.8c0-9.86-5.19-12.5-12.58-12.5C642.7,141.08,637.51,143.72,637.51,153.58z"/>
		<path class="st0" d="M697.02,193.26v-59.49H706v51.39h25.87v8.1H697.02z"/>
		<path class="st0" d="M794.42,180.06c0,7.3-5.63,13.2-13.11,13.2h-28.16v-59.49h28.07c7.66,0,13.2,5.9,13.2,13.2V180.06z
			 M785.44,149.88c0-5.9-2.99-8.1-8.54-8.1h-14.79v43.38h14.79c5.54,0,8.54-2.02,8.54-8.1V149.88z"/>
	</g>
	<g class="st3">
		<path class="st0" d="M326.93,223.65c0,3.31-2.12,5.84-5.15,6.49l7.36,14.4h-2.48l-7.31-14.26h-9.52v14.26h-2.21v-31.1h12.7
			c3.82,0,6.62,3.08,6.62,6.9V223.65z M324.72,220.24c0-2.9-1.89-4.69-4.78-4.69h-10.12v12.65h10.12c2.9,0,4.78-1.79,4.78-4.69
			V220.24z"/>
		<path class="st0" d="M345.36,230.91l-9.2,13.62h-2.85l10.58-15.46v-0.05l-10.63-15.6h2.85l9.25,13.66l9.2-13.66h2.85l-10.63,15.6
			v0.05l10.58,15.46h-2.85L345.36,230.91z"/>
		<path class="st0" d="M399.61,237.63c0,3.82-2.81,6.9-6.62,6.9h-13.66v-31.1h13.66c3.82,0,6.62,3.08,6.62,6.9V237.63z
			 M397.41,220.47c0-2.9-2.16-4.92-5.06-4.92h-10.81v26.82h10.86c2.9,0,5.01-1.98,5.01-4.88V220.47z"/>
		<path class="st0" d="M425.24,229.9v4.83h-14.72v2.62c0,4.32,4.05,5.52,7.59,5.52c1.75,0,4.6-0.14,6.39-0.46v2.12
			c-2.02,0.32-4.19,0.51-6.72,0.51c-4.97,0-9.48-1.79-9.48-8.28v-6.86c0-4.51,1.93-7.68,8.51-7.68
			C423.4,222.22,425.24,225.39,425.24,229.9z M423.04,232.52v-3.68c0-2.53-1.98-4.55-6.21-4.55c-3.73,0-6.3,1.56-6.3,4.65v3.59
			H423.04z"/>
		<path class="st0" d="M447.28,239.33c0,3.5-2.39,5.7-7.45,5.7c-4.74,0-7.41-0.51-7.41-0.51v-2.25c0,0,3.82,0.55,6.44,0.55
			c4.09,0,6.21-0.92,6.21-3.54v-1.06c0-1.43-0.46-2.76-2.94-3.13l-4.69-0.64c-3.17-0.41-5.11-2.07-5.11-4.92v-1.43
			c0-3.5,2.02-5.89,7.91-5.89c2.76,0,4.14,0.28,5.8,0.46v2.16c0,0-2.9-0.41-5.61-0.41c-4.14,0-5.89,1.2-5.89,3.68v1.01
			c0,1.43,0.46,2.81,2.94,3.13l4.69,0.64c3.27,0.41,5.11,2.12,5.11,4.92V239.33z"/>
		<path class="st0" d="M455.45,216.93v-5.06h2.21v5.06H455.45z M455.45,244.53v-21.81h2.21v21.81H455.45z"/>
		<path class="st0" d="M470.13,237.08c-2.35-0.87-4.37-2.76-4.37-6.62v-0.55c0-4.51,1.61-7.68,8.46-7.68c1.61,0,2.94,0.18,4.05,0.51
			h7.87v2.48h-0.46l-4.92-0.55c1.38,1.29,1.93,3.68,1.93,5.24v0.55c0,5.79-4.37,7.13-8.56,7.13c-0.78,0-1.24-0.04-1.98-0.14
			l-0.87,1.15c-0.37,0.51-0.46,0.87-0.46,1.2c0,1.24,1.38,1.89,2.76,2.07l5.93,0.74c3.87,0.46,5.71,2.3,5.71,4.92v0.64
			c0,4.51-4.92,6.72-10.4,6.72c-5.24,0-9.43-2.02-9.43-6.53v-0.37c0-2.03,0.92-4.23,4.69-5.52c-0.69-0.32-1.56-1.2-1.56-2.12v-0.74
			c0-0.28,0-0.55,0.14-0.69L470.13,237.08z M483.06,247.75c0-1.75-1.15-2.99-3.96-3.31l-6.85-0.83c-3.4,0.41-4.69,2.39-4.69,4.14
			v0.88c0,2.9,3.63,4.23,7.36,4.23c3.87,0,8.14-1.43,8.14-4.32V247.75z M467.92,229.12v1.66c0,3.08,1.79,4.79,6.26,4.79
			c4.46,0,6.35-1.7,6.35-4.79v-1.66c0-3.08-1.89-4.78-6.35-4.78C469.72,224.34,467.92,226.04,467.92,229.12z"/>
		<path class="st0" d="M508.62,244.53V230c0-4-1.79-5.57-4.32-5.57c-0.6,0-1.7,0.04-2.71,0.74l-5.57,3.68v15.69h-2.21v-21.81h2.21
			v3.82l6.26-4.14c0.41-0.14,0.92-0.18,1.29-0.18c5.15,0,7.27,2.85,7.27,6.9v15.41H508.62z"/>
		<path class="st0" d="M551.09,237.13c0,5.24-3.08,7.91-9.84,7.91c-4.42,0-8.92-0.46-8.92-0.46v-2.35c0,0,5.57,0.51,9.38,0.51
			c4.42,0,7.18-1.56,7.18-5.57v-2.02c0-2.76-1.47-4.32-4.74-4.74l-5.34-0.64c-3.68-0.46-6.62-2.71-6.62-6.62v-2.16
			c0-5.38,3.17-8.05,9.57-8.05c2.99,0,6.03,0.28,7.82,0.51v2.3c0,0-3.77-0.51-8.33-0.51c-3.96,0-6.85,1.56-6.85,5.52v2.03
			c0,2.85,1.52,4.42,4.74,4.79l5.29,0.64c3.73,0.46,6.67,2.71,6.67,6.62V237.13z"/>
		<path class="st0" d="M560.1,254.29l3.27-9.75h-1.01l-7.73-21.81h2.35l6.9,19.6h0.46l6.9-19.6h2.35l-11.27,31.56H560.1z"/>
		<path class="st0" d="M593.29,239.33c0,3.5-2.39,5.7-7.45,5.7c-4.74,0-7.41-0.51-7.41-0.51v-2.25c0,0,3.82,0.55,6.44,0.55
			c4.09,0,6.21-0.92,6.21-3.54v-1.06c0-1.43-0.46-2.76-2.94-3.13l-4.69-0.64c-3.17-0.41-5.11-2.07-5.11-4.92v-1.43
			c0-3.5,2.02-5.89,7.91-5.89c2.76,0,4.14,0.28,5.8,0.46v2.16c0,0-2.9-0.41-5.61-0.41c-4.14,0-5.89,1.2-5.89,3.68v1.01
			c0,1.43,0.46,2.81,2.94,3.13l4.69,0.64c3.27,0.41,5.11,2.12,5.11,4.92V239.33z"/>
		<path class="st0" d="M611.2,244.62c-0.83,0.23-2.07,0.37-2.94,0.37c-3.27,0-5.66-1.2-5.66-5.94v-14.21h-4.19v-2.12h4.19v-5.38
			l1.29-0.87h0.92v6.26h6.81v2.12h-6.81v13.76c0,3.04,0.97,4.14,3.59,4.14c0.51,0,2.21-0.14,2.81-0.23V244.62z"/>
		<path class="st0" d="M634.62,229.9v4.83H619.9v2.62c0,4.32,4.05,5.52,7.59,5.52c1.75,0,4.6-0.14,6.39-0.46v2.12
			c-2.02,0.32-4.19,0.51-6.72,0.51c-4.97,0-9.48-1.79-9.48-8.28v-6.86c0-4.51,1.93-7.68,8.51-7.68
			C632.78,222.22,634.62,225.39,634.62,229.9z M632.42,232.52v-3.68c0-2.53-1.98-4.55-6.21-4.55c-3.73,0-6.3,1.56-6.3,4.65v3.59
			H632.42z"/>
		<path class="st0" d="M669.44,244.53V230c0-4-1.01-5.57-3.54-5.57c-0.6,0-1.7,0.04-2.71,0.74l-5.57,3.68v15.69h-2.21V230
			c0-4-1.01-5.57-3.54-5.57c-0.6,0-1.7,0.04-2.71,0.74l-5.57,3.68v15.69h-2.21v-21.81h2.21v3.82l6.26-4.14
			c0.41-0.14,0.92-0.18,1.29-0.18c4.05-0.04,5.71,1.75,6.3,4.46l6.44-4.28c0.41-0.14,0.92-0.18,1.29-0.18c5.15,0,6.49,2.85,6.49,6.9
			v15.41H669.44z"/>
	</g>
	<path class="st7" d="M239.04,74.62c-5.36,0.69-11.25,3.29-17.23,9.26c-18.95,18.95-19.02,58.45-19.02,58.45s39.5-0.07,58.45-19.02
		c5.97-5.97,8.58-11.86,9.27-17.21c-4-6.15-8.69-11.99-14.09-17.39C251.03,83.31,245.19,78.62,239.04,74.62z"/>
	<g class="st3">
		<g>
			<path class="st0" d="M160.55,79.45c7.09,0,14.19,0.72,21.11,2.13c3.16,4.4,4.77,10.09,4.77,16.93
				c0,22.22-20.28,45.78-25.88,51.87c-5.6-6.09-25.88-29.65-25.88-51.87c0-6.83,1.61-12.52,4.78-16.93
				C146.37,80.16,153.46,79.45,160.55,79.45 M160.55,77.45c-7.63,0-15.07,0.81-22.25,2.33c-3.3,4.28-5.63,10.28-5.63,18.73
				c0,26.8,27.88,54.78,27.88,54.78s27.88-27.98,27.88-54.78c0-8.45-2.32-14.45-5.62-18.73C175.63,78.26,168.18,77.45,160.55,77.45
				L160.55,77.45z"/>
		</g>
		<g>
			<path class="st0" d="M160.55,218.02c5.6,6.09,25.88,29.65,25.88,51.87c0,6.83-1.61,12.52-4.78,16.93
				c-6.92,1.41-14.01,2.13-21.1,2.13c-7.09,0-14.19-0.72-21.11-2.13c-3.16-4.4-4.77-10.09-4.77-16.93
				C134.67,247.68,154.95,224.11,160.55,218.02 M160.55,215.11c0,0-27.88,27.98-27.88,54.78c0,8.45,2.32,14.45,5.62,18.73
				c7.18,1.52,14.63,2.33,22.26,2.33c7.63,0,15.07-0.81,22.25-2.33c3.3-4.28,5.63-10.28,5.63-18.73
				C188.43,243.09,160.55,215.11,160.55,215.11L160.55,215.11z"/>
		</g>
		<g>
			<path class="st0" d="M246.24,158.32c6.83,0,12.52,1.61,16.93,4.78c1.41,6.92,2.13,14.01,2.13,21.1c0,7.09-0.72,14.19-2.13,21.11
				c-4.4,3.16-10.09,4.77-16.93,4.77c-22.22,0-45.78-20.28-51.87-25.88C200.46,178.6,224.03,158.32,246.24,158.32 M246.24,156.32
				c-26.8,0-54.78,27.88-54.78,27.88s27.98,27.88,54.78,27.88c8.45,0,14.45-2.32,18.73-5.62c1.52-7.18,2.33-14.63,2.33-22.26
				c0-7.63-0.81-15.07-2.33-22.25C260.69,158.65,254.69,156.32,246.24,156.32L246.24,156.32z"/>
		</g>
		<g>
			<path class="st0" d="M74.86,158.32c22.22,0,45.78,20.28,51.87,25.88c-6.09,5.6-29.65,25.88-51.87,25.88
				c-6.83,0-12.52-1.61-16.93-4.78c-1.41-6.92-2.13-14.01-2.13-21.1c0-7.09,0.72-14.19,2.13-21.11
				C62.33,159.92,68.02,158.32,74.86,158.32 M74.86,156.32c-8.45,0-14.45,2.32-18.73,5.62c-1.52,7.18-2.33,14.63-2.33,22.26
				c0,7.63,0.81,15.07,2.33,22.25c4.28,3.3,10.28,5.63,18.73,5.63c26.8,0,54.78-27.88,54.78-27.88S101.65,156.32,74.86,156.32
				L74.86,156.32z"/>
		</g>
		<g>
			<path class="st0" d="M184.47,208.12c8.26,0.34,39.25,2.65,54.97,18.38c4.83,4.83,7.72,9.99,8.59,15.35
				c-3.89,5.89-8.4,11.42-13.41,16.43c-5.01,5.01-10.54,9.52-16.44,13.42c-5.35-0.88-10.51-3.77-15.34-8.6
				C187.13,247.38,184.81,216.38,184.47,208.12 M182.41,206.06c0,0,0.07,39.5,19.02,58.45c5.97,5.97,11.86,8.58,17.21,9.27
				c6.15-4,11.99-8.69,17.39-14.09c5.4-5.4,10.09-11.23,14.09-17.38c-0.69-5.36-3.29-11.25-9.26-17.23
				C221.91,206.13,182.41,206.06,182.41,206.06L182.41,206.06z"/>
		</g>
		<g>
			<path class="st0" d="M102.91,96.71c5.35,0.88,10.51,3.77,15.34,8.6c15.71,15.71,18.04,46.71,18.38,54.97
				c-8.26-0.34-39.25-2.65-54.97-18.38c-4.83-4.83-7.72-9.99-8.59-15.35c3.89-5.89,8.4-11.42,13.41-16.43
				C91.49,105.12,97.02,100.6,102.91,96.71 M102.45,94.62c-6.15,4-11.99,8.69-17.39,14.09c-5.4,5.4-10.09,11.23-14.09,17.38
				c0.69,5.36,3.29,11.25,9.26,17.23c18.95,18.95,58.45,19.02,58.45,19.02s-0.07-39.5-19.02-58.45
				C113.69,97.92,107.81,95.32,102.45,94.62L102.45,94.62z"/>
		</g>
		<g>
			<path class="st0" d="M136.63,208.12c-0.34,8.27-2.67,39.26-18.38,54.97c-4.83,4.83-9.99,7.72-15.35,8.59
				c-5.89-3.89-11.42-8.4-16.43-13.41c-5.01-5.01-9.52-10.54-13.42-16.44c0.88-5.35,3.77-10.51,8.6-15.34
				C97.37,210.79,128.37,208.46,136.63,208.12 M138.69,206.06c0,0-39.5,0.07-58.45,19.02c-5.97,5.97-8.58,11.86-9.27,17.21
				c4,6.15,8.69,11.99,14.09,17.39c5.4,5.4,11.23,10.09,17.38,14.09c5.36-0.69,11.25-3.29,17.23-9.26
				C138.62,245.56,138.69,206.06,138.69,206.06L138.69,206.06z"/>
		</g>
	</g>
</g>
</svg>
