<svg xmlns="http://www.w3.org/2000/svg" viewBox="0 0 192 64">
  <path fill="#000" d="m8.5,61.37h-2.24v-.86c-.2.4-.53.66-.99.86-.4.2-.86.26-1.38.26-.79,0-1.45-.2-2.04-.53-.59-.4-1.05-.86-1.38-1.52-.33-.66-.46-1.32-.46-2.11s.13-1.45.46-2.11c.33-.66.79-1.12,1.38-1.52.59-.4,1.25-.53,2.04-.53.92,0,1.65.33,2.31.92v-3.23h2.31v10.35Zm-2.24-3.89c0-.26-.07-.53-.13-.79-.13-.26-.26-.46-.4-.66-.2-.2-.4-.33-.59-.4-.26-.07-.53-.13-.79-.13-.53,0-1.05.2-1.38.53-.4.4-.59.86-.59,1.38,0,.4.07.73.26.99.13.33.4.53.66.72.33.2.66.26.99.26.4,0,.73-.07.99-.26.33-.2.53-.4.73-.72.2-.2.26-.53.26-.92Zm5.54-4.68h-2.31v-1.78h2.31v1.78Zm0,8.57h-2.31v-7.78h2.31v7.78Zm9.03-3.76c0,.2,0,.46-.07.59h-5.87c.07.46.26.79.59,1.05.33.26.72.4,1.19.4.33,0,.59-.07.79-.2.2-.13.4-.33.59-.53h2.37c-.13.4-.4.73-.66,1.05-.26.33-.53.59-.86.86-.33.26-.66.4-1.05.53-.4.13-.79.2-1.19.2-.73,0-1.45-.2-2.04-.53-.66-.4-1.12-.86-1.52-1.52-.4-.66-.53-1.32-.53-2.04,0-.53.13-1.05.33-1.58.2-.53.53-.99.86-1.38.4-.4.79-.72,1.32-.92.46-.2.99-.33,1.58-.33s1.12.13,1.65.33c.53.2.92.53,1.32.92.4.4.66.86.86,1.38.26.59.33,1.12.33,1.71Zm-2.31-.99c-.07-.4-.26-.72-.66-.99-.33-.26-.73-.4-1.12-.4-.46,0-.79.13-1.12.4-.33.26-.53.59-.66.99h3.56Zm11.01-1.25h-1.12v6h-2.31v-6h-1.19v-1.78h1.12v-2.57h2.31v2.57h1.19v1.78Zm2.9-2.57h-2.31v-1.78h2.31v1.78Zm0,8.57h-2.31v-7.78h2.31v7.78Zm9.16-2.9c-.13.46-.26.86-.53,1.32-.26.4-.59.72-.92,1.05-.33.26-.73.53-1.19.66-.46.13-.92.26-1.38.26-.59,0-1.12-.13-1.58-.33-.53-.2-.92-.53-1.32-.92s-.66-.86-.92-1.32c-.2-.53-.33-1.05-.33-1.58,0-.72.2-1.45.53-2.11.33-.66.86-1.12,1.52-1.52.66-.4,1.32-.53,2.11-.53.46,0,.99.07,1.45.2.46.13.86.4,1.25.66.4.26.66.66.92,1.05.26.4.46.86.53,1.32h-2.37c-.33-.73-.92-1.12-1.71-1.12-.53,0-.99.2-1.32.59-.33.4-.46.86-.46,1.38,0,.4.07.72.2.99.13.33.4.53.66.73.26.2.59.26.99.26.73,0,1.32-.33,1.71-1.05h2.18Zm7.91-4.88l-2.9,3.43,2.83,4.35h-2.64l-2.18-3.76v3.76h-2.31v-10.41h2.31v5.4l2.18-2.83h2.7v.07Z"/>
  <path fill="#000" d="m57.21,57.61c0,.2,0,.46-.07.59h-5.87c.07.46.26.79.59,1.05.33.26.73.4,1.19.4.33,0,.59-.07.79-.2.2-.13.4-.33.59-.53h2.37c-.13.4-.4.73-.66,1.05-.26.33-.53.59-.86.86-.33.26-.66.4-1.05.53-.4.13-.79.2-1.19.2-.73,0-1.45-.2-2.04-.53-.66-.4-1.12-.86-1.52-1.52-.4-.66-.53-1.32-.53-2.04,0-.53.13-1.05.33-1.58.2-.53.53-.99.86-1.38.4-.4.79-.72,1.32-.92.46-.2.99-.33,1.58-.33s1.12.13,1.65.33c.53.2.92.53,1.32.92.4.4.66.86.86,1.38.26.59.33,1.12.33,1.71Zm-2.31-.99c-.07-.4-.26-.72-.66-.99-.33-.26-.73-.4-1.12-.4-.46,0-.79.13-1.12.4-.33.26-.53.59-.66.99h3.56Zm6.85-1.25h-1.12v6h-2.31v-6h-1.12v-1.78h1.12v-2.57h2.31v2.57h1.12v1.78Zm8.63,2.24c0,.2,0,.46-.07.59h-5.87c.07.46.26.79.59,1.05.33.26.73.4,1.19.4.33,0,.59-.07.79-.2.2-.13.4-.33.59-.53h2.37c-.13.4-.4.73-.66,1.05-.26.33-.53.59-.86.86-.33.26-.66.4-1.05.53-.4.13-.79.2-1.19.2-.72,0-1.45-.2-2.04-.53-.66-.4-1.12-.86-1.52-1.52-.4-.66-.53-1.32-.53-2.04,0-.53.13-1.05.33-1.58.2-.53.53-.99.86-1.38.4-.4.79-.72,1.32-.92.46-.2.99-.33,1.58-.33s1.12.13,1.65.33c.53.2.92.53,1.32.92.4.4.66.86.86,1.38.2.59.33,1.12.33,1.71Zm-2.37-.99c-.07-.4-.26-.72-.66-.99-.33-.26-.72-.4-1.12-.4-.46,0-.79.13-1.12.4-.33.26-.53.59-.66.99h3.56Z"/>
  <path fill="#000" d="m78.63,61.36h-2.83l-1.58-2.44-1.58,2.44h-2.83l2.97-4.15-2.64-3.63h2.77l1.25,2.04,1.25-2.04h2.77l-2.64,3.63,3.1,4.15Zm8.9-3.76c0,.53-.07,1.05-.26,1.52-.2.46-.46.92-.79,1.32-.33.4-.73.66-1.19.92-.46.2-.99.33-1.52.33-.99,0-1.78-.33-2.37-.99v3.3h-2.31v-10.41h2.18v.86h.07c.33-.4.66-.66,1.05-.86.4-.2.86-.26,1.38-.26.59,0,1.12.13,1.58.33.46.2.86.53,1.19.92.33.4.59.86.73,1.38.2.53.26,1.05.26,1.65Zm-2.31-.07c0-.26-.07-.53-.13-.79-.07-.26-.26-.46-.4-.66-.2-.2-.4-.33-.66-.4-.26-.13-.53-.13-.79-.13-.4,0-.72.07-.99.26-.26.2-.53.4-.73.72-.2.33-.26.66-.26.99s.07.66.26.99c.2.33.4.53.73.73.33.2.66.26.99.26s.66-.07.99-.26c.33-.2.53-.4.73-.73.2-.33.26-.66.26-.99Zm11.01.07c0,.2,0,.46-.07.59h-5.87c.07.46.26.79.59,1.05.33.26.73.4,1.19.4.33,0,.59-.07.79-.2.2-.13.4-.33.59-.53h2.37c-.13.4-.4.73-.66,1.05-.26.33-.53.59-.86.86-.33.26-.66.4-1.05.53-.4.13-.79.2-1.19.2-.72,0-1.45-.2-2.04-.53-.66-.4-1.12-.86-1.52-1.52-.4-.66-.53-1.32-.53-2.04,0-.53.13-1.05.33-1.58.2-.53.53-.99.86-1.38.4-.4.79-.72,1.32-.92.46-.2.99-.33,1.58-.33s1.12.13,1.65.33c.53.2.92.53,1.32.92.4.4.66.86.86,1.38.2.59.33,1.12.33,1.71Zm-2.31-.99c-.07-.4-.26-.72-.66-.99-.33-.26-.72-.4-1.12-.4-.46,0-.79.13-1.12.4-.33.26-.53.59-.66.99h3.56Zm7.32-.92c-.4,0-.72.07-.99.13-.26.07-.46.2-.59.4-.13.2-.26.53-.26.86v4.28h-2.31v-7.78h2.18v.86c.2-.4.46-.66.79-.86.33-.2.72-.26,1.19-.26v2.37Zm5.01-.33h-1.12v6h-2.31v-6h-1.12v-1.78h1.12v-2.57h2.31v2.57h1.12v1.78Zm8.37,2.24c0,.2,0,.46-.07.59h-5.87c.06.46.26.79.59,1.05.33.26.73.4,1.19.4.33,0,.59-.07.79-.2.2-.13.4-.33.59-.53h2.37c-.13.4-.39.73-.66,1.05-.26.33-.53.59-.86.86-.33.26-.66.4-1.05.53-.4.13-.79.2-1.19.2-.73,0-1.45-.2-2.04-.53-.66-.4-1.12-.86-1.52-1.52-.4-.66-.53-1.32-.53-2.04,0-.53.13-1.05.33-1.58.2-.53.53-.99.86-1.38.39-.4.79-.72,1.32-.92.46-.2.99-.33,1.58-.33s1.12.13,1.65.33c.53.2.92.53,1.32.92.4.4.66.86.86,1.38.2.59.33,1.12.33,1.71Zm-2.37-.99c-.07-.4-.26-.72-.66-.99-.33-.26-.72-.4-1.12-.4-.46,0-.79.13-1.12.4-.33.26-.53.59-.66.99h3.56Zm10.41,4.75h-2.31v-4.28c0-.53-.07-.92-.26-1.19-.2-.26-.46-.4-.99-.4s-.86.13-1.06.4c-.2.26-.26.66-.26,1.19v4.22h-2.31v-7.78h2.18v.86c.13-.26.33-.46.53-.66.2-.13.46-.26.72-.33.26-.07.53-.13.86-.13s.72.07,1.05.2c.4.13.66.26.92.46.59.53.92,1.32.92,2.5v4.94Z"/>
  <path fill="#000" d="m148.83,57.41c-.99-.73-2.44-.53-3.16.53-.73.99-.53,2.37.53,3.16.99.73,2.37.53,3.16-.53.66-1.05.46-2.44-.53-3.16Zm3.56-4.94c-.99-.72-2.37-.53-3.16.53-.73.99-.53,2.37.53,3.16.99.73,2.37.53,3.16-.53.66-.99.46-2.44-.53-3.16Zm3.56-4.88c-.99-.73-2.37-.53-3.16.53-.73.99-.53,2.37.53,3.16.99.73,2.37.53,3.16-.53.66-.99.46-2.44-.53-3.16Zm17.6-23.99c.99.73,2.37.53,3.16-.53.73-.99.53-2.37-.53-3.16-.99-.73-2.37-.53-3.16.53-.73,1.05-.53,2.44.53,3.16Zm3.49-4.88c.99.73,2.37.53,3.16-.53.73-.99.53-2.37-.53-3.16-.99-.72-2.37-.53-3.16.53-.66,1.05-.46,2.44.53,3.16Zm3.56-4.88c.99.72,2.37.53,3.16-.53.72-.99.53-2.37-.53-3.16-.99-.73-2.37-.53-3.16.53-.66,1.05-.46,2.44.53,3.16ZM190.35.46c-.99-.73-2.37-.53-3.16.53-.72.99-.53,2.37.53,3.16.99.73,2.37.53,3.16-.53.66-1.05.46-2.44-.53-3.16Zm-3.56,4.88c-.99-.73-2.37-.53-3.16.53-.73.99-.53,2.37.53,3.16,1.05.79,2.37.53,3.16-.53.73-1.05.46-2.44-.53-3.16Zm-27.35,37.37c-.99-.73-2.37-.53-3.16.53-.73.99-.53,2.37.53,3.16.99.73,2.37.53,3.16-.53.73-.99.53-2.44-.53-3.16Zm7.12-9.75c-.99-.72-2.37-.53-3.16.53-.73.99-.53,2.37.53,3.16.99.72,2.37.53,3.16-.53.73-1.05.46-2.44-.53-3.16Zm-3.56,4.88c-.99-.73-2.37-.53-3.16.53-.72.99-.53,2.37.53,3.16.99.72,2.37.53,3.16-.53.72-1.05.46-2.44-.53-3.16ZM153.57,0h-9.36v7.12h9.36V0Zm-17.8,10.41l-6,19.51h-.07l-6-19.51h-5.34c-5.4,0-7.05,2.83-7.84,4.35h-.13v-4.35h-8.77v9.1c-2.44-6-8.11-10.15-15.16-10.15-9.49,0-16.41,8.04-16.41,16.81v.73c-2.04-2.57-5.73-3.56-9.23-4.55-2.5-.73-4.81-1.71-4.81-3.36,0-.86.66-2.11,2.64-2.11,2.77,0,2.9,1.71,2.97,2.37h9.16c-.79-8.24-7.91-9.89-12-9.89-6.13,0-11.53,3.69-12.06,9.43-2.64-5.6-8.11-9.43-14.83-9.43-4.28,0-8.04,1.65-10.88,4.22v-3.16h-4.02c-5.4,0-7.05,2.9-7.84,4.42h-.13v-4.42H.26v31.31h9.36v-16.15c0-4.61,2.9-5.6,7.12-5.73-.79,1.98-1.25,4.15-1.25,6.33,0,9.29,7.58,16.54,16.54,16.54,3.23,0,6.33-.99,8.9-2.83,2.17-1.52,4.09-3.63,5.54-6.33,1.38,7.25,8.04,9.16,12.59,9.16,6.53,0,12-3.56,12.66-9.43,2.7,5.6,8.44,9.36,14.96,9.36,3.23,0,6.33-.99,8.9-2.83,2.5-1.71,4.61-4.22,6.13-7.45v9.23h9.36v-16.02c0-4.35,2.57-5.47,6.39-5.73l7.84,21.88h8.96l9.95-27.68v27.68h9.36V13.18l20.56,28.54h11.47l-22.81-31.31h-27.02Zm-103.81,6.85c4.81,0,6.72,3.49,7.12,5.34h-14.24c.4-1.85,2.24-5.34,7.12-5.34Zm27.22,18.06c-.4,0-3.16,0-3.56-2.9h-18.26c-1.19,1.38-2.7,2.44-5.21,2.44-3.69,0-6.79-2.18-7.32-5.93h23.46c.13-.73.2-1.25.2-2.5,0-.79-.07-1.52-.13-2.31,1.38,1.71,3.49,2.9,5.87,3.69,6,2.31,8.3,2.57,8.3,5.01-.13,1.58-1.78,2.5-3.36,2.5Zm27.35-18.06c4.88,0,6.72,3.49,7.12,5.34h-14.24c.4-1.85,2.24-5.34,7.12-5.34Zm15.09,15.09h-9.69c-1.25,1.38-2.7,2.5-5.34,2.5-3.69,0-6.79-2.18-7.32-5.93h22.34v3.43Z"/>
</svg>
