<svg xmlns="http://www.w3.org/2000/svg" viewBox="0 0 32 32">
  <path d="m21.79.32-.16 3.61c-.01.2.22.33.39.2l1.4-1.06 1.2.93c.16.1.37 0 .38-.19L24.86.13 26.64 0a1.6 1.6 0 0 1 1.7 1.6v28.8a1.6 1.6 0 0 1-1.67 1.6L5.2 31.04a1.6 1.6 0 0 1-1.53-1.54l-1-26.4a1.6 1.6 0 0 1 1.5-1.7L21.77.3zm-4.1 12.08c0 .63 4.22.32 4.79-.1 0-4.27-2.3-6.53-6.48-6.53-4.2 0-6.53 2.3-6.53 5.73 0 5.93 8 6.03 8 9.27 0 .94-.43 1.47-1.4 1.47-1.28 0-1.8-.65-1.74-2.88 0-.48-4.86-.64-5.02 0-.36 5.38 2.97 6.93 6.8 6.93 3.72 0 6.63-1.98 6.63-5.57 0-6.36-8.14-6.19-8.14-9.33 0-1.3.96-1.47 1.5-1.47.6 0 1.67.1 1.6 2.5z"/>
</svg>