<svg xmlns="http://www.w3.org/2000/svg" fill="none" viewBox="0 0 600 450"><g transform="translate(150 110)"><text fill="#374151" font-family="sans-serif" font-size="14" font-weight="600">Upload file</text><rect width="300" height="120" y="15" fill="#f9fafb" stroke="#d1d5db" stroke-dasharray="6, 6" stroke-width="1.5" rx="8"/><g text-anchor="middle" transform="translate(150 75)"><text y="5" fill="#6b7280" font-family="sans-serif" font-size="13">Drop files here</text><rect width="80" height="24" x="-40" y="13" fill="#fff" stroke="#d1d5db" rx="4"/><text y="29" fill="#374151" font-size="11" font-weight="500">Upload</text></g><g transform="translate(0 150)"><rect width="300" height="50" fill="#fff" stroke="#e5e7eb" rx="6"/><g transform="translate(10 10)"><rect width="20" height="26" y="2" fill="#e5e7eb" rx="2"/><text x="30" y="12" fill="#374151" font-family="sans-serif" font-size="12" font-weight="500">document.pdf</text><text x="30" y="26" fill="#9ca3af" font-family="sans-serif" font-size="10">2.00 MB</text><circle cx="272" cy="15" r="10" fill="#f3f4f6" stroke="#d1d5db"/><path stroke="#6b7280" stroke-width="1.5" d="m268 11 8 8m0-8-8 8"/></g></g><g stroke="#9ca3af" stroke-dasharray="2, 2"><path d="M20-10v-30M90 15v-85M160 80V-40M230 90V-70M50 200v40M280 185v55"/></g><g fill="#6b7280" font-family="sans-serif" font-size="10" font-weight="bold" letter-spacing=".02em" text-anchor="middle"><text x="20" y="-48">LABEL</text><text x="90" y="-78">DROP ZONE</text><text x="160" y="-48">ZONE LABEL</text><text x="230" y="-78">UPLOAD BUTTON</text><text x="50" y="258">FILE ITEM</text><text x="280" y="258">REMOVE BUTTON</text></g><g fill="#9ca3af"><circle cx="20" cy="-5" r="2.5"/><circle cx="90" cy="15" r="2.5"/><circle cx="160" cy="80" r="2.5"/><circle cx="230" cy="90" r="2.5"/><circle cx="50" cy="200" r="2.5"/><circle cx="280" cy="185" r="2.5"/></g></g></svg>