<svg xmlns="http://www.w3.org/2000/svg" version="1.1" xmlns:xlink="http://www.w3.org/1999/xlink" xmlns:svgjs="http://svgjs.com/svgjs" width="139.593" height="139.762"><svg width="139.593" height="139.762" xmlns="http://www.w3.org/2000/svg" xmlns:svg="http://www.w3.org/2000/svg">
 <g class="layer">
  <title>Layer 1</title>
  <circle cx="69.08" cy="70.14" fill="#ffd170" id="SvgjsCircle1018" r="64.58" stroke="#ffb136" stroke-width="4"></circle>
  <circle cx="69.08" cy="70.14" fill="#fa7475" id="SvgjsCircle1017" r="39.13" stroke="#fa8888" stroke-width="4"></circle>
  <g fill="#ffd170" id="SvgjsG1016" stroke="#ffb136" stroke-opacity="0.75">
   <path d="m69.03,11.44l0.09,14.24" id="SvgjsPath1015"></path>
   <path d="m69.03,115.02l0.09,14.24" id="SvgjsPath1014"></path>
   <path d="m121.81,424.02l0.09,14.24" id="SvgjsPath1013" transform="matrix(0 1 -1 0 551.99 -51.7135)"></path>
   <path d="m17.2,424.02l0.1,14.24" id="SvgjsPath1012" transform="matrix(0 1 -1 0 447.388 52.8875)"></path>
   <path d="m26.37,29.83l10.68,9.37" id="SvgjsPath1011"></path>
   <path d="m101.02,101.14l10.68,9.37" id="SvgjsPath1010"></path>
   <path d="m464.56,400.01l10.69,-9.37" id="SvgjsPath1009" transform="matrix(-1 0 0 -1 577.812 430.645)"></path>
   <path d="m389.39,472.81l10.68,-9.37" id="SvgjsPath1008" transform="matrix(-1 0 0 -1 427.462 576.243)"></path>
   <path d="m406.88,483.4l5.52,-10.96" id="SvgjsPath1007" transform="matrix(-1 0 0 -1 457.276 595.839)"></path>
   <path d="m449.86,388.81l5.52,-10.96" id="SvgjsPath1006" transform="matrix(-1 0 0 -1 543.23 406.661)"></path>
   <path d="m44.35,17.8l5.52,10.96" id="SvgjsPath1005"></path>
   <path d="m86.62,111.81l5.52,10.97" id="SvgjsPath1004"></path>
   <path d="m18.98,417.55l5.52,-10.97" id="SvgjsPath1003" transform="matrix(0 1 -1 0 432.803 29.3275)"></path>
   <path d="m113.78,457.59l5.52,-10.96" id="SvgjsPath1002" transform="matrix(0 1 -1 0 567.651 -25.4275)"></path>
   <path d="m475.24,46.46l5.52,10.96" id="SvgjsPath1001" transform="matrix(0 -1 1 0 65.0615 530.943)"></path>
   <path d="m379.4,84.81l5.52,10.97" id="SvgjsPath1000" transform="matrix(0 -1 1 0 -69.1305 473.458)"></path>
  </g>
 </g>
</svg><style>@media (prefers-color-scheme: light) { :root { filter: none; } }
</style></svg>