<svg version="1.1" xmlns="http://www.w3.org/2000/svg" viewBox="0 0 880 560" width="880" height="560" font-family="Inter, 'Segoe UI', system-ui, sans-serif">
  <defs>
    <marker id="arrow" viewBox="0 0 10 10" refX="8" refY="5" markerWidth="7" markerHeight="7" orient="auto-start-reverse">
      <path d="M0 0 L10 5 L0 10 z" fill="#868e96" />
    </marker>
  </defs>

  <!-- Trigger -->
  <text x="30" y="24" font-size="16" fill="#1e1e1e" font-weight="600">Trigger</text>
  <g>
    <rect x="30" y="34" width="150" height="44" rx="8" fill="#e9ecef" stroke="#868e96" stroke-width="2" />
    <text x="105" y="61" font-size="15" fill="#495057" text-anchor="middle">Add records</text>
  </g>
  <path d="M182 60 C 220 64, 236 68, 268 78" stroke="#868e96" stroke-width="1.5" stroke-dasharray="4 4" fill="none" marker-end="url(#arrow)" />

  <!-- Overlay (dimmed backdrop) -->
  <rect x="250" y="34" width="360" height="492" rx="10" fill="#dee2e6" fill-opacity="0.5" />

  <!-- Dialog surface -->
  <rect x="270" y="54" width="320" height="452" rx="16" fill="#ffffff" stroke="#868e96" stroke-width="2" />

  <!-- Title / header -->
  <text x="290" y="98" font-size="20" fill="#1e1e1e" font-weight="700">Select records</text>
  <path d="M556 76 L568 88 M568 76 L556 88" stroke="#868e96" stroke-width="2" stroke-linecap="round" />

  <!-- Search field -->
  <rect x="290" y="116" width="280" height="40" rx="8" fill="#ffffff" stroke="#adb5bd" stroke-width="1.5" />
  <circle cx="309" cy="136" r="6" fill="none" stroke="#868e96" stroke-width="1.5" />
  <path d="M313 140 L319 146" stroke="#868e96" stroke-width="1.5" stroke-linecap="round" />
  <rect x="328" y="132" width="130" height="7" rx="3.5" fill="#ced4da" />

  <!-- Filter controls -->
  <rect x="290" y="172" width="78" height="28" rx="14" fill="#ffffff" stroke="#adb5bd" stroke-width="1.5" />
  <rect x="302" y="183" width="46" height="6" rx="3" fill="#ced4da" />
  <rect x="378" y="172" width="98" height="28" rx="14" fill="#ffffff" stroke="#adb5bd" stroke-width="1.5" />
  <rect x="390" y="183" width="66" height="6" rx="3" fill="#ced4da" />

  <!-- Results collection -->
  <rect x="290" y="216" width="280" height="196" rx="8" fill="#ffffff" stroke="#adb5bd" stroke-width="1.5" />
  <!-- row 0 (checked) -->
  <rect x="304" y="232" width="16" height="16" rx="3" fill="#1e1e1e" />
  <path d="M307 240 L311 244 L317 236" stroke="#ffffff" stroke-width="2" fill="none" stroke-linecap="round" stroke-linejoin="round" />
  <rect x="332" y="238" width="200" height="8" rx="4" fill="#adb5bd" />
  <!-- row 1 -->
  <rect x="304" y="268" width="16" height="16" rx="3" fill="#ffffff" stroke="#adb5bd" stroke-width="1.5" />
  <rect x="332" y="274" width="170" height="8" rx="4" fill="#ced4da" />
  <!-- row 2 (checked) -->
  <rect x="304" y="304" width="16" height="16" rx="3" fill="#1e1e1e" />
  <path d="M307 312 L311 316 L317 308" stroke="#ffffff" stroke-width="2" fill="none" stroke-linecap="round" stroke-linejoin="round" />
  <rect x="332" y="310" width="186" height="8" rx="4" fill="#adb5bd" />
  <!-- row 3 -->
  <rect x="304" y="340" width="16" height="16" rx="3" fill="#ffffff" stroke="#adb5bd" stroke-width="1.5" />
  <rect x="332" y="346" width="150" height="8" rx="4" fill="#ced4da" />
  <!-- row 4 (checked) -->
  <rect x="304" y="376" width="16" height="16" rx="3" fill="#1e1e1e" />
  <path d="M307 384 L311 388 L317 380" stroke="#ffffff" stroke-width="2" fill="none" stroke-linecap="round" stroke-linejoin="round" />
  <rect x="332" y="382" width="164" height="8" rx="4" fill="#adb5bd" />

  <!-- Divider + footer -->
  <line x1="290" y1="426" x2="570" y2="426" stroke="#dee2e6" stroke-width="2" />
  <rect x="378" y="446" width="74" height="34" rx="8" fill="#ffffff" stroke="#868e96" stroke-width="1.5" />
  <text x="415" y="468" font-size="14" fill="#495057" text-anchor="middle">Cancel</text>
  <rect x="462" y="446" width="108" height="34" rx="8" fill="#1e1e1e" />
  <text x="516" y="468" font-size="14" fill="#ffffff" text-anchor="middle">Add 3 records</text>

  <!-- Labels: left -->
  <g font-size="18" fill="#1e1e1e">
    <text x="232" y="141" text-anchor="end">Search</text>
    <line x1="238" y1="136" x2="290" y2="136" stroke="#868e96" stroke-width="1.5" />
    <text x="232" y="191" text-anchor="end">Filter controls</text>
    <line x1="238" y1="186" x2="290" y2="186" stroke="#868e96" stroke-width="1.5" />
    <text x="232" y="309" text-anchor="end">Results collection</text>
    <line x1="238" y1="304" x2="290" y2="304" stroke="#868e96" stroke-width="1.5" />
  </g>

  <!-- Labels: right -->
  <g font-size="18" fill="#1e1e1e">
    <text x="648" y="94" text-anchor="start">Title</text>
    <line x1="590" y1="88" x2="642" y2="88" stroke="#868e96" stroke-width="1.5" />
    <text x="648" y="469" text-anchor="start">Commit footer</text>
    <line x1="572" y1="463" x2="642" y2="463" stroke="#868e96" stroke-width="1.5" />
  </g>
</svg>
