<svg width="800" height="550" viewBox="0 0 800 550" fill="none" xmlns="http://www.w3.org/2000/svg">
  <!-- Background -->
  <rect width="800" height="550" fill="#FAFAFA"/>

  <!-- Table Container -->
  <rect x="50" y="50" width="600" height="380" fill="white" stroke="#E5E7EB" stroke-width="2" rx="8"/>

  <!-- Header Row (sticky visual) -->
  <rect x="50" y="50" width="600" height="50" fill="#F3F4F6" stroke="#E5E7EB" stroke-width="2" rx="8" rx="8"/>
  <rect x="50" y="50" width="600" height="50" fill="#F3F4F6" stroke="#E5E7EB" stroke-width="2"/>

  <!-- Column Headers -->
  <rect x="60" y="60" width="30" height="30" fill="white" stroke="#D1D5DB" stroke-width="1" rx="4"/>
  <line x1="67" y1="70" x2="67" y2="80" stroke="#9CA3AF" stroke-width="2"/>
  <line x1="62" y1="75" x2="72" y2="75" stroke="#9CA3AF" stroke-width="2"/>

  <text x="110" y="82" font-family="Inter, system-ui, sans-serif" font-size="14" font-weight="600" fill="#374151">Name</text>
  <path d="M 175 73 L 180 78 L 175 83" stroke="#6B7280" stroke-width="1.5" fill="none"/>

  <text x="220" y="82" font-family="Inter, system-ui, sans-serif" font-size="14" font-weight="600" fill="#374151">Email</text>
  <text x="370" y="82" font-family="Inter, system-ui, sans-serif" font-size="14" font-weight="600" fill="#374151">Status</text>
  <text x="550" y="82" font-family="Inter, system-ui, sans-serif" font-size="14" font-weight="600" fill="#374151">Balance</text>

  <!-- Body Rows -->
  <!-- Row 1 (with selection checkbox) -->
  <rect x="50" y="100" width="600" height="60" fill="white" stroke="#E5E7EB" stroke-width="1"/>
  <rect x="60" y="115" width="30" height="30" fill="white" stroke="#D1D5DB" stroke-width="1.5" rx="4"/>
  <path d="M 67 130 L 72 135 L 82 120" stroke="#3B82F6" stroke-width="2" fill="none"/>

  <text x="110" y="138" font-family="Inter, system-ui, sans-serif" font-size="14" font-weight="500" fill="#111827">Hans Müller</text>
  <text x="110" y="153" font-family="Inter, system-ui, sans-serif" font-size="12" fill="#6B7280">@schnitzelmeister</text>

  <text x="220" y="138" font-family="Inter, system-ui, sans-serif" font-size="13" fill="#374151">hans.mueller@ex...</text>

  <rect x="370" y="125" width="60" height="22" fill="#DCFCE7" stroke="#86EFAC" stroke-width="1" rx="11"/>
  <text x="382" y="140" font-family="Inter, system-ui, sans-serif" font-size="12" fill="#166534">active</text>

  <text x="580" y="138" font-family="Inter, system-ui, sans-serif" font-size="13" text-anchor="end" fill="#374151">€1,250.75</text>

  <!-- Drag handle indicator -->
  <g opacity="0.6">
    <rect x="640" y="125" width="3" height="12" fill="#9CA3AF" rx="1.5"/>
    <rect x="646" y="125" width="3" height="12" fill="#9CA3AF" rx="1.5"/>
  </g>

  <!-- Row 2 -->
  <rect x="50" y="160" width="600" height="60" fill="#FAFAFA" stroke="#E5E7EB" stroke-width="1"/>
  <rect x="60" y="175" width="30" height="30" fill="white" stroke="#D1D5DB" stroke-width="1.5" rx="4"/>

  <text x="110" y="198" font-family="Inter, system-ui, sans-serif" font-size="14" font-weight="500" fill="#111827">Fritz Schneider</text>
  <text x="110" y="213" font-family="Inter, system-ui, sans-serif" font-size="12" fill="#6B7280">@wurstwhiz</text>

  <text x="220" y="198" font-family="Inter, system-ui, sans-serif" font-size="13" fill="#374151">fritz.schneider@...</text>

  <rect x="370" y="185" width="70" height="22" fill="#FEF3C7" stroke="#FDE047" stroke-width="1" rx="11"/>
  <text x="380" y="200" font-family="Inter, system-ui, sans-serif" font-size="12" fill="#854D0E">inactive</text>

  <text x="580" y="198" font-family="Inter, system-ui, sans-serif" font-size="13" text-anchor="end" fill="#374151">€980.50</text>

  <!-- Row 3 (editable cell with edit icon) -->
  <rect x="50" y="220" width="600" height="60" fill="white" stroke="#E5E7EB" stroke-width="1"/>
  <rect x="60" y="235" width="30" height="30" fill="white" stroke="#D1D5DB" stroke-width="1.5" rx="4"/>

  <g opacity="0.8">
    <text x="110" y="258" font-family="Inter, system-ui, sans-serif" font-size="14" font-weight="500" fill="#111827">Klaus Becker</text>
    <circle cx="186" cy="253" r="10" fill="#F3F4F6" stroke="#D1D5DB" stroke-width="1"/>
    <path d="M 182 256 L 182 249 L 189 249 L 189 250 L 183 250 L 183 256 Z" fill="#6B7280"/>
    <path d="M 184 252 L 188 248 L 189 249 L 185 253 Z" fill="#6B7280"/>
  </g>

  <text x="220" y="258" font-family="Inter, system-ui, sans-serif" font-size="13" fill="#374151">klaus.becker@ex...</text>

  <rect x="370" y="245" width="78" height="22" fill="#FEE2E2" stroke="#FCA5A5" stroke-width="1" rx="11"/>
  <text x="378" y="260" font-family="Inter, system-ui, sans-serif" font-size="12" fill="#991B1B">suspended</text>

  <text x="580" y="258" font-family="Inter, system-ui, sans-serif" font-size="13" text-anchor="end" fill="#374151">€0.00</text>

  <!-- Row 4 -->
  <rect x="50" y="280" width="600" height="60" fill="#FAFAFA" stroke="#E5E7EB" stroke-width="1"/>
  <rect x="60" y="295" width="30" height="30" fill="white" stroke="#D1D5DB" stroke-width="1.5" rx="4"/>

  <text x="110" y="318" font-family="Inter, system-ui, sans-serif" font-size="14" font-weight="500" fill="#111827">Helga Fischer</text>
  <text x="110" y="333" font-family="Inter, system-ui, sans-serif" font-size="12" fill="#6B7280">@bavarianbanter</text>

  <text x="220" y="318" font-family="Inter, system-ui, sans-serif" font-size="13" fill="#374151">helga.fischer@ex...</text>

  <rect x="370" y="305" width="60" height="22" fill="#DCFCE7" stroke="#86EFAC" stroke-width="1" rx="11"/>
  <text x="382" y="320" font-family="Inter, system-ui, sans-serif" font-size="12" fill="#166534">active</text>

  <text x="580" y="318" font-family="Inter, system-ui, sans-serif" font-size="13" text-anchor="end" fill="#374151">€2,300.10</text>

  <!-- Row 5 -->
  <rect x="50" y="340" width="600" height="60" fill="white" stroke="#E5E7EB" stroke-width="1"/>
  <rect x="60" y="355" width="30" height="30" fill="white" stroke="#D1D5DB" stroke-width="1.5" rx="4"/>

  <text x="110" y="378" font-family="Inter, system-ui, sans-serif" font-size="14" font-weight="500" fill="#111827">Ursula Weber</text>
  <text x="110" y="393" font-family="Inter, system-ui, sans-serif" font-size="12" fill="#6B7280">@bratwurstbabe</text>

  <text x="220" y="378" font-family="Inter, system-ui, sans-serif" font-size="13" fill="#374151">ursula.weber@ex...</text>

  <rect x="370" y="365" width="60" height="22" fill="#DCFCE7" stroke="#86EFAC" stroke-width="1" rx="11"/>
  <text x="382" y="380" font-family="Inter, system-ui, sans-serif" font-size="12" fill="#166534">active</text>

  <text x="580" y="378" font-family="Inter, system-ui, sans-serif" font-size="13" text-anchor="end" fill="#374151">€150.25</text>

  <!-- Bottom border -->
  <line x1="50" y1="400" x2="650" y2="400" stroke="#E5E7EB" stroke-width="1"/>

  <!-- Labels with lines -->
  <!-- Table Container label -->
  <line x1="50" y1="30" x2="650" y2="30" stroke="#3B82F6" stroke-width="2" stroke-dasharray="4 4"/>
  <text x="350" y="20" font-family="Inter, system-ui, sans-serif" font-size="13" font-weight="600" fill="#3B82F6" text-anchor="middle">Table</text>

  <!-- Header label -->
  <line x1="680" y1="75" x2="730" y2="75" stroke="#8B5CF6" stroke-width="2"/>
  <text x="735" y="80" font-family="Inter, system-ui, sans-serif" font-size="12" fill="#8B5CF6">Header (sticky)</text>

  <!-- Column with sort label -->
  <line x1="190" y1="60" x2="190" y2="45" stroke="#10B981" stroke-width="2"/>
  <line x1="190" y1="45" x2="730" y2="45" stroke="#10B981" stroke-width="2"/>
  <text x="735" y="50" font-family="Inter, system-ui, sans-serif" font-size="12" fill="#10B981">Column with sorting</text>

  <!-- Selection checkbox label -->
  <line x1="75" y1="60" x2="75" y2="450" stroke="#F59E0B" stroke-width="2"/>
  <line x1="75" y1="450" x2="200" y2="450" stroke="#F59E0B" stroke-width="2"/>
  <text x="205" y="455" font-family="Inter, system-ui, sans-serif" font-size="12" fill="#F59E0B">Selection checkbox</text>

  <!-- Row label -->
  <line x1="50" y1="130" x2="35" y2="130" stroke="#EC4899" stroke-width="2"/>
  <line x1="35" y1="130" x2="35" y2="475" stroke="#EC4899" stroke-width="2"/>
  <line x1="35" y1="475" x2="130" y2="475" stroke="#EC4899" stroke-width="2"/>
  <text x="135" y="480" font-family="Inter, system-ui, sans-serif" font-size="12" fill="#EC4899">Row (selectable)</text>

  <!-- Cell label -->
  <line x1="220" y1="340" x2="220" y2="500" stroke="#06B6D4" stroke-width="2"/>
  <line x1="220" y1="500" x2="280" y2="500" stroke="#06B6D4" stroke-width="2"/>
  <text x="285" y="505" font-family="Inter, system-ui, sans-serif" font-size="12" fill="#06B6D4">Cell</text>

  <!-- Editable Cell label -->
  <line x1="195" y1="253" x2="195" y2="520" stroke="#EF4444" stroke-width="2"/>
  <line x1="195" y1="520" x2="380" y2="520" stroke="#EF4444" stroke-width="2"/>
  <text x="385" y="525" font-family="Inter, system-ui, sans-serif" font-size="12" fill="#EF4444">Editable Cell (with edit icon)</text>

  <!-- Drag handle label -->
  <line x1="643" y1="131" x2="680" y2="131" stroke="#6366F1" stroke-width="2"/>
  <text x="685" y="136" font-family="Inter, system-ui, sans-serif" font-size="12" fill="#6366F1">Drag handle</text>
</svg>
