<svg xmlns="http://www.w3.org/2000/svg" viewBox="180.281 180.257 139.593 139.762"><circle cx="250.077" cy="250.138" r="64.581" fill="#ffd170" stroke="#ffb136" stroke-width="4" paint-order="fill"/><circle cx="250.078" cy="250.138" r="39.132" fill="#fa7475" stroke="#fa8888" stroke-width="4"/><path fill="#ffd170" stroke="#ffb136" stroke-opacity=".75" d="m250.031 191.44.093 14.244m-.093 89.332.093 14.244m58.85-59.168-14.244.093m-90.357-.093-14.244.093m17.243-40.357 10.682 9.373m63.967 61.935 10.682 9.373m1.544-79.873-10.682 9.373m-64.493 63.426-10.682 9.373m23.008-.369-5.52 10.961m48.497-105.55-5.52 10.961M225.352 197.8l5.52 10.961m36.75 83.054 5.52 10.961m-76.884-74.47 10.96 5.52m83.841 34.526 10.96 5.52m-9.498-38.172 10.961-5.52m-106.798 43.874 10.96-5.52" paint-order="fill"/><g transform="translate(460.784 77.556) scale(.39772)"><circle cx="688.049" cy="421.352" r="64.581" fill="#ffd170" stroke="#ffb136" stroke-width="4" paint-order="fill"/><circle cx="688.05" cy="421.352" r="39.132" fill="#fa7475" stroke="#fa8888" stroke-width="4"/><path fill="#ffd170" stroke="#ffb136" stroke-opacity=".75" d="m688.003 362.654.093 14.244m-.093 89.332.093 14.244m58.85-59.169-14.244.093m-90.357-.093-14.244.093m17.243-40.356 10.682 9.373m63.967 61.935 10.682 9.373m1.545-79.873-10.683 9.373m-64.493 63.426-10.682 9.373m23.008-.369-5.52 10.96m48.497-105.549-5.52 10.96m-43.503-11.01 5.52 10.96m36.75 83.055 5.52 10.96M634.23 399.52l10.96 5.52m83.84 34.525 10.962 5.52m-9.498-38.171 10.96-5.52m-106.798 43.874 10.96-5.52" paint-order="fill"/></g><text x="517.431" y="263.182" fill="#333" font-family="Raleway" font-size="67" font-weight="800" letter-spacing="1" style="white-space:pre">Marig</text><text x="762.753" y="265.657" fill="#333" font-family="Raleway" font-size="67" font-weight="800" letter-spacing="1" style="white-space:pre">ld</text><text x="360.356" y="113.409" fill="#333" font-family="Montserrat" font-size="67" font-weight="800" style="text-transform:uppercase;white-space:pre">Marig</text><text x="654.77" y="113.947" fill="#333" font-family="Montserrat" font-size="67" font-weight="800" style="text-transform:uppercase;white-space:pre">ld</text><g transform="translate(354.646 -77.346) scale(.39772)"><circle cx="688.049" cy="421.352" r="64.581" fill="#ffd170" stroke="#ffb136" stroke-width="4" paint-order="fill"/><circle cx="688.05" cy="421.352" r="39.132" fill="#fa7475" stroke="#fa8888" stroke-width="4"/><path fill="#ffd170" stroke="#ffb136" stroke-opacity=".75" d="m688.003 362.654.093 14.244m-.093 89.332.093 14.244m58.85-59.169-14.244.093m-90.357-.093-14.244.093m17.243-40.356 10.682 9.373m63.967 61.935 10.682 9.373m1.545-79.873-10.683 9.373m-64.493 63.426-10.682 9.373m23.008-.369-5.52 10.96m48.497-105.549-5.52 10.96m-43.503-11.01 5.52 10.96m36.75 83.055 5.52 10.96M634.23 399.52l10.96 5.52m83.84 34.525 10.962 5.52m-9.498-38.171 10.96-5.52m-106.798 43.874 10.96-5.52" paint-order="fill"/></g></svg>