<?xml version="1.0" encoding="utf-8"?>
<svg viewBox="180.281 180.257 139.593 139.762" xmlns="http://www.w3.org/2000/svg" xmlns:bx="https://boxy-svg.com">
  <defs>
    <view id="view-1" viewBox="516.174 210.453 316.609 71.707">
      <title>View 1</title>
    </view>
    <style bx:fonts="Raleway">@import url(https://fonts.googleapis.com/css2?family=Raleway%3Aital%2Cwght%400%2C100%3B0%2C200%3B0%2C300%3B0%2C400%3B0%2C500%3B0%2C600%3B0%2C700%3B0%2C800%3B0%2C900%3B1%2C100%3B1%2C200%3B1%2C300%3B1%2C400%3B1%2C500%3B1%2C600%3B1%2C700%3B1%2C800%3B1%2C900&amp;display=swap);</style>
    <style bx:fonts="Montserrat">@import url(https://fonts.googleapis.com/css2?family=Montserrat%3Aital%2Cwght%400%2C100%3B0%2C200%3B0%2C300%3B0%2C400%3B0%2C500%3B0%2C600%3B0%2C700%3B0%2C800%3B0%2C900%3B1%2C100%3B1%2C200%3B1%2C300%3B1%2C400%3B1%2C500%3B1%2C600%3B1%2C700%3B1%2C800%3B1%2C900&amp;display=swap);</style>
    <view id="view-2" viewBox="361.289 60.757 390.084 57.333">
      <title>View 2</title>
    </view>
  </defs>
  <circle style="fill: rgb(255, 209, 112); stroke-width: 4px; paint-order: fill; stroke: rgb(255, 177, 54);" cx="250.077" cy="250.138" r="64.581"/>
  <circle style="fill: rgb(250, 116, 117); stroke: rgb(250, 136, 136); stroke-width: 4px;" cx="250.078" cy="250.138" r="39.132"/>
  <g>
    <path style="fill: rgb(255, 209, 112); paint-order: fill; stroke: rgb(255, 177, 54); stroke-opacity: 0.75;" d="M 250.031 191.44 L 250.124 205.684"/>
    <path style="fill: rgb(255, 209, 112); paint-order: fill; stroke: rgb(255, 177, 54); stroke-opacity: 0.75;" d="M 250.031 295.016 L 250.124 309.26"/>
    <path style="fill: rgb(255, 209, 112); paint-order: fill; stroke: rgb(255, 177, 54); stroke-opacity: 0.75;" d="M 301.805 243.016 L 301.898 257.26" transform="matrix(0, 1, -1, 0, 551.98951, -51.713493)"/>
    <path style="fill: rgb(255, 209, 112); paint-order: fill; stroke: rgb(255, 177, 54); stroke-opacity: 0.75;" d="M 197.204 243.016 L 197.297 257.26" transform="matrix(0, 1, -1, 0, 447.388504, 52.887512)"/>
    <path style="fill: rgb(255, 209, 112); paint-order: fill; stroke: rgb(255, 177, 54); stroke-opacity: 0.75;" d="M 207.372 209.828 L 218.054 219.201"/>
    <path style="fill: rgb(255, 209, 112); paint-order: fill; stroke: rgb(255, 177, 54); stroke-opacity: 0.75;" d="M 282.021 281.136 L 292.703 290.509"/>
    <path style="fill: rgb(255, 209, 112); paint-order: fill; stroke: rgb(255, 177, 54); stroke-opacity: 0.75;" d="M 283.565 220.009 L 294.247 210.636" transform="matrix(-1, 0, 0, -1, 577.812012, 430.645004)"/>
    <path style="fill: rgb(255, 209, 112); paint-order: fill; stroke: rgb(255, 177, 54); stroke-opacity: 0.75;" d="M 208.39 292.808 L 219.072 283.435" transform="matrix(-1, 0, 0, -1, 427.462006, 576.243011)"/>
    <path style="fill: rgb(255, 209, 112); paint-order: fill; stroke: rgb(255, 177, 54); stroke-opacity: 0.75;" d="M 225.878 303.4 L 231.398 292.439" transform="matrix(-1, 0, 0, -1, 457.276001, 595.838989)"/>
    <path style="fill: rgb(255, 209, 112); paint-order: fill; stroke: rgb(255, 177, 54); stroke-opacity: 0.75;" d="M 268.855 208.811 L 274.375 197.85" transform="matrix(-1, 0, 0, -1, 543.230011, 406.661011)"/>
    <path style="fill: rgb(255, 209, 112); paint-order: fill; stroke: rgb(255, 177, 54); stroke-opacity: 0.75;" d="M 225.352 197.8 L 230.872 208.761"/>
    <path style="fill: rgb(255, 209, 112); paint-order: fill; stroke: rgb(255, 177, 54); stroke-opacity: 0.75;" d="M 267.622 291.815 L 273.142 302.776"/>
    <path style="fill: rgb(255, 209, 112); paint-order: fill; stroke: rgb(255, 177, 54); stroke-opacity: 0.75;" d="M 198.978 236.546 L 204.498 225.585" transform="matrix(0, 1, -1, 0, 432.803505, 29.327507)"/>
    <path style="fill: rgb(255, 209, 112); paint-order: fill; stroke: rgb(255, 177, 54); stroke-opacity: 0.75;" d="M 293.779 276.592 L 299.299 265.631" transform="matrix(0, 1, -1, 0, 567.650513, -25.42749)"/>
    <path style="fill: rgb(255, 209, 112); paint-order: fill; stroke: rgb(255, 177, 54); stroke-opacity: 0.75;" d="M 295.242 227.46 L 300.762 238.421" transform="matrix(0, -1, 1, 0, 65.061493, 530.942505)"/>
    <path style="fill: rgb(255, 209, 112); paint-order: fill; stroke: rgb(255, 177, 54); stroke-opacity: 0.75;" d="M 199.404 265.814 L 204.924 276.775" transform="matrix(0, -1, 1, 0, -69.130493, 473.458496)"/>
  </g>
  <g style="" transform="matrix(0.397724, 0, 0, 0.397724, 460.784271, 77.556198)">
    <title>Logo</title>
    <circle style="fill: rgb(255, 209, 112); stroke-width: 4px; paint-order: fill; stroke: rgb(255, 177, 54);" cx="688.049" cy="421.352" r="64.581"/>
    <circle style="fill: rgb(250, 116, 117); stroke: rgb(250, 136, 136); stroke-width: 4px;" cx="688.05" cy="421.352" r="39.132"/>
    <g transform="matrix(1, 0, 0, 1, 437.972137, 171.213745)">
      <path style="fill: rgb(255, 209, 112); paint-order: fill; stroke: rgb(255, 177, 54); stroke-opacity: 0.75;" d="M 250.031 191.44 L 250.124 205.684"/>
      <path style="fill: rgb(255, 209, 112); paint-order: fill; stroke: rgb(255, 177, 54); stroke-opacity: 0.75;" d="M 250.031 295.016 L 250.124 309.26"/>
      <path style="fill: rgb(255, 209, 112); paint-order: fill; stroke: rgb(255, 177, 54); stroke-opacity: 0.75;" d="M 301.805 243.016 L 301.898 257.26" transform="matrix(0, 1, -1, 0, 551.98951, -51.713493)"/>
      <path style="fill: rgb(255, 209, 112); paint-order: fill; stroke: rgb(255, 177, 54); stroke-opacity: 0.75;" d="M 197.204 243.016 L 197.297 257.26" transform="matrix(0, 1, -1, 0, 447.388504, 52.887512)"/>
      <path style="fill: rgb(255, 209, 112); paint-order: fill; stroke: rgb(255, 177, 54); stroke-opacity: 0.75;" d="M 207.372 209.828 L 218.054 219.201"/>
      <path style="fill: rgb(255, 209, 112); paint-order: fill; stroke: rgb(255, 177, 54); stroke-opacity: 0.75;" d="M 282.021 281.136 L 292.703 290.509"/>
      <path style="fill: rgb(255, 209, 112); paint-order: fill; stroke: rgb(255, 177, 54); stroke-opacity: 0.75;" d="M 283.565 220.009 L 294.247 210.636" transform="matrix(-1, 0, 0, -1, 577.812012, 430.645004)"/>
      <path style="fill: rgb(255, 209, 112); paint-order: fill; stroke: rgb(255, 177, 54); stroke-opacity: 0.75;" d="M 208.39 292.808 L 219.072 283.435" transform="matrix(-1, 0, 0, -1, 427.462006, 576.243011)"/>
      <path style="fill: rgb(255, 209, 112); paint-order: fill; stroke: rgb(255, 177, 54); stroke-opacity: 0.75;" d="M 225.878 303.4 L 231.398 292.439" transform="matrix(-1, 0, 0, -1, 457.276001, 595.838989)"/>
      <path style="fill: rgb(255, 209, 112); paint-order: fill; stroke: rgb(255, 177, 54); stroke-opacity: 0.75;" d="M 268.855 208.811 L 274.375 197.85" transform="matrix(-1, 0, 0, -1, 543.230011, 406.661011)"/>
      <path style="fill: rgb(255, 209, 112); paint-order: fill; stroke: rgb(255, 177, 54); stroke-opacity: 0.75;" d="M 225.352 197.8 L 230.872 208.761"/>
      <path style="fill: rgb(255, 209, 112); paint-order: fill; stroke: rgb(255, 177, 54); stroke-opacity: 0.75;" d="M 267.622 291.815 L 273.142 302.776"/>
      <path style="fill: rgb(255, 209, 112); paint-order: fill; stroke: rgb(255, 177, 54); stroke-opacity: 0.75;" d="M 198.978 236.546 L 204.498 225.585" transform="matrix(0, 1, -1, 0, 432.803505, 29.327507)"/>
      <path style="fill: rgb(255, 209, 112); paint-order: fill; stroke: rgb(255, 177, 54); stroke-opacity: 0.75;" d="M 293.779 276.592 L 299.299 265.631" transform="matrix(0, 1, -1, 0, 567.650513, -25.42749)"/>
      <path style="fill: rgb(255, 209, 112); paint-order: fill; stroke: rgb(255, 177, 54); stroke-opacity: 0.75;" d="M 295.242 227.46 L 300.762 238.421" transform="matrix(0, -1, 1, 0, 65.061493, 530.942505)"/>
      <path style="fill: rgb(255, 209, 112); paint-order: fill; stroke: rgb(255, 177, 54); stroke-opacity: 0.75;" d="M 199.404 265.814 L 204.924 276.775" transform="matrix(0, -1, 1, 0, -69.130493, 473.458496)"/>
    </g>
  </g>
  <text style="fill: rgb(51, 51, 51); font-family: Raleway; font-size: 67px; font-weight: 800; letter-spacing: 1px; white-space: pre;" x="517.431" y="263.182">Marig</text>
  <text style="fill: rgb(51, 51, 51); font-family: Raleway; font-size: 67px; font-weight: 800; letter-spacing: 1px; white-space: pre;" x="762.753" y="265.657">ld</text>
  <text style="fill: rgb(51, 51, 51); font-family: Montserrat; font-size: 67px; font-weight: 800; text-transform: uppercase; white-space: pre;" x="360.356" y="113.409">Marig</text>
  <text style="fill: rgb(51, 51, 51); font-family: Montserrat; font-size: 67px; font-weight: 800; text-transform: uppercase; white-space: pre;" x="654.77" y="113.947">ld</text>
  <g style="" transform="matrix(0.397724, 0, 0, 0.397724, 354.645874, -77.346489)">
    <title>Logo</title>
    <circle style="fill: rgb(255, 209, 112); stroke-width: 4px; paint-order: fill; stroke: rgb(255, 177, 54);" cx="688.049" cy="421.352" r="64.581"/>
    <circle style="fill: rgb(250, 116, 117); stroke: rgb(250, 136, 136); stroke-width: 4px;" cx="688.05" cy="421.352" r="39.132"/>
    <g transform="matrix(1, 0, 0, 1, 437.972137, 171.213745)">
      <path style="fill: rgb(255, 209, 112); paint-order: fill; stroke: rgb(255, 177, 54); stroke-opacity: 0.75;" d="M 250.031 191.44 L 250.124 205.684"/>
      <path style="fill: rgb(255, 209, 112); paint-order: fill; stroke: rgb(255, 177, 54); stroke-opacity: 0.75;" d="M 250.031 295.016 L 250.124 309.26"/>
      <path style="fill: rgb(255, 209, 112); paint-order: fill; stroke: rgb(255, 177, 54); stroke-opacity: 0.75;" d="M 301.805 243.016 L 301.898 257.26" transform="matrix(0, 1, -1, 0, 551.98951, -51.713493)"/>
      <path style="fill: rgb(255, 209, 112); paint-order: fill; stroke: rgb(255, 177, 54); stroke-opacity: 0.75;" d="M 197.204 243.016 L 197.297 257.26" transform="matrix(0, 1, -1, 0, 447.388504, 52.887512)"/>
      <path style="fill: rgb(255, 209, 112); paint-order: fill; stroke: rgb(255, 177, 54); stroke-opacity: 0.75;" d="M 207.372 209.828 L 218.054 219.201"/>
      <path style="fill: rgb(255, 209, 112); paint-order: fill; stroke: rgb(255, 177, 54); stroke-opacity: 0.75;" d="M 282.021 281.136 L 292.703 290.509"/>
      <path style="fill: rgb(255, 209, 112); paint-order: fill; stroke: rgb(255, 177, 54); stroke-opacity: 0.75;" d="M 283.565 220.009 L 294.247 210.636" transform="matrix(-1, 0, 0, -1, 577.812012, 430.645004)"/>
      <path style="fill: rgb(255, 209, 112); paint-order: fill; stroke: rgb(255, 177, 54); stroke-opacity: 0.75;" d="M 208.39 292.808 L 219.072 283.435" transform="matrix(-1, 0, 0, -1, 427.462006, 576.243011)"/>
      <path style="fill: rgb(255, 209, 112); paint-order: fill; stroke: rgb(255, 177, 54); stroke-opacity: 0.75;" d="M 225.878 303.4 L 231.398 292.439" transform="matrix(-1, 0, 0, -1, 457.276001, 595.838989)"/>
      <path style="fill: rgb(255, 209, 112); paint-order: fill; stroke: rgb(255, 177, 54); stroke-opacity: 0.75;" d="M 268.855 208.811 L 274.375 197.85" transform="matrix(-1, 0, 0, -1, 543.230011, 406.661011)"/>
      <path style="fill: rgb(255, 209, 112); paint-order: fill; stroke: rgb(255, 177, 54); stroke-opacity: 0.75;" d="M 225.352 197.8 L 230.872 208.761"/>
      <path style="fill: rgb(255, 209, 112); paint-order: fill; stroke: rgb(255, 177, 54); stroke-opacity: 0.75;" d="M 267.622 291.815 L 273.142 302.776"/>
      <path style="fill: rgb(255, 209, 112); paint-order: fill; stroke: rgb(255, 177, 54); stroke-opacity: 0.75;" d="M 198.978 236.546 L 204.498 225.585" transform="matrix(0, 1, -1, 0, 432.803505, 29.327507)"/>
      <path style="fill: rgb(255, 209, 112); paint-order: fill; stroke: rgb(255, 177, 54); stroke-opacity: 0.75;" d="M 293.779 276.592 L 299.299 265.631" transform="matrix(0, 1, -1, 0, 567.650513, -25.42749)"/>
      <path style="fill: rgb(255, 209, 112); paint-order: fill; stroke: rgb(255, 177, 54); stroke-opacity: 0.75;" d="M 295.242 227.46 L 300.762 238.421" transform="matrix(0, -1, 1, 0, 65.061493, 530.942505)"/>
      <path style="fill: rgb(255, 209, 112); paint-order: fill; stroke: rgb(255, 177, 54); stroke-opacity: 0.75;" d="M 199.404 265.814 L 204.924 276.775" transform="matrix(0, -1, 1, 0, -69.130493, 473.458496)"/>
    </g>
  </g>
</svg>